%TF.GenerationSoftware,Altium Limited,Altium Designer,22.9.1 (49)*%
G04 Layer_Color=65535*
%FSLAX45Y45*%
%MOMM*%
%TF.SameCoordinates,980CB771-C75C-4F2C-B837-E40D3F653A85*%
%TF.FilePolarity,Positive*%
%TF.FileFunction,Legend,Top*%
%TF.Part,Single*%
G01*
G75*
%TA.AperFunction,NonConductor*%
%ADD53C,0.25000*%
%ADD54C,0.20000*%
%ADD55C,0.15240*%
%ADD56C,0.15000*%
%ADD67C,0.12700*%
%ADD68C,0.25400*%
%ADD69C,0.07620*%
G36*
X2876065Y4385560D02*
X2837965Y4385560D01*
X2837965Y4410960D01*
X2876065Y4410960D01*
X2876065Y4385560D01*
X2876065Y4385560D02*
G37*
G36*
X3510300Y4274600D02*
X3472200Y4300000D01*
X3510300Y4325400D01*
X3510300Y4274600D01*
X3510300Y4274600D02*
G37*
G36*
X2296315Y3725810D02*
X2270915Y3725810D01*
X2270915Y3763910D01*
X2296315Y3763910D01*
X2296315Y3725810D01*
X2296315Y3725810D02*
G37*
G36*
X3363115Y3645810D02*
X3337715Y3645810D01*
X3337715Y3683910D01*
X3363115Y3683910D01*
X3363115Y3645810D01*
X3363115Y3645810D02*
G37*
G36*
X1560300Y3624600D02*
X1522200Y3650000D01*
X1560300Y3675400D01*
X1560300Y3624600D01*
X1560300Y3624600D02*
G37*
G36*
X2951550Y2253640D02*
X2913450Y2253640D01*
X2913450Y2279040D01*
X2951550Y2279040D01*
X2951550Y2253640D01*
X2951550Y2253640D02*
G37*
G36*
X1801550Y2253640D02*
X1763450Y2253640D01*
X1763450Y2279040D01*
X1801550Y2279040D01*
X1801550Y2253640D01*
X1801550Y2253640D02*
G37*
D53*
X1772000Y1749070D02*
G03*
X1772000Y1749070I-12500J0D01*
G01*
X2622000Y1749070D02*
G03*
X2622000Y1749070I-12500J0D01*
G01*
X3472000Y1754070D02*
G03*
X3472000Y1754070I-12500J0D01*
G01*
D54*
X2919370Y5017360D02*
G03*
X2919370Y5017360I-10000J0D01*
G01*
X1656500Y4479000D02*
G03*
X1656500Y4479000I-10000J0D01*
G01*
X1678500Y4426000D02*
X2021500Y4426000D01*
X1678500Y3774000D02*
X2021500Y3774000D01*
X3595000Y4570121D02*
X3595000Y4625121D01*
X3295000Y4570121D02*
X3595000Y4570121D01*
X3295000Y4570121D02*
X3295000Y4625121D01*
X3595000Y4625121D01*
X3595000Y4660121D02*
X3595000Y4785121D01*
D55*
X2646580Y4812420D02*
X2842160Y4812420D01*
X2842160Y4613534D02*
X2842160Y4686186D01*
X2646580Y4487300D02*
X2842160Y4487300D01*
X2444905Y4236970D02*
X2478701Y4236970D01*
X3189125Y4203174D02*
X3189125Y4236970D01*
X3155329Y3492750D02*
X3189125Y3492750D01*
X2444905Y3492750D02*
X2478701Y3492750D01*
X2444905Y4203174D02*
X2444905Y4236970D01*
X3155329Y4236970D02*
X3189125Y4236970D01*
X3189125Y3492750D02*
X3189125Y3526546D01*
X2444905Y3492750D02*
X2444905Y3526546D01*
X2671660Y1878885D02*
X2671660Y1896115D01*
X2778340Y1878885D02*
X2778340Y1896115D01*
X2821660Y1878755D02*
X2821660Y1895985D01*
X2928340Y1878755D02*
X2928340Y1895985D01*
X3671660Y1878755D02*
X3671660Y1895985D01*
X3778340Y1878755D02*
X3778340Y1895985D01*
X3521660Y1878755D02*
X3521660Y1895985D01*
X3628340Y1878755D02*
X3628340Y1895985D01*
X1991385Y3703340D02*
X2008615Y3703340D01*
X1991385Y3596660D02*
X2008615Y3596660D01*
X3758000Y2437910D02*
X3758000Y2862090D01*
X2742000Y2437910D02*
X2742000Y2862090D01*
X2078340Y1878755D02*
X2078340Y1895985D01*
X1971660Y1878755D02*
X1971660Y1895985D01*
X1928340Y1878755D02*
X1928340Y1895985D01*
X1821660Y1878755D02*
X1821660Y1895985D01*
X2608000Y2437910D02*
X2608000Y2862090D01*
X1592000Y2437910D02*
X1592000Y2862090D01*
D56*
X1795000Y1694870D02*
X1795000Y1712370D01*
X2105000Y1694870D02*
X2105000Y1712370D01*
X2075000Y1712370D02*
X2105000Y1712370D01*
X1795000Y1712370D02*
X1825000Y1712370D01*
X2645000Y1694870D02*
X2645000Y1712370D01*
X2955000Y1694870D02*
X2955000Y1712370D01*
X2925000Y1712370D02*
X2955000Y1712370D01*
X2645000Y1712370D02*
X2675000Y1712370D01*
X3495000Y1699870D02*
X3495000Y1717370D01*
X3805000Y1699870D02*
X3805000Y1717370D01*
X3775000Y1717370D02*
X3805000Y1717370D01*
X3495000Y1717370D02*
X3525000Y1717370D01*
X3303348Y4939987D02*
X3276690Y4939987D01*
X3290019Y4939987D01*
X3290019Y4873342D01*
X3276690Y4860013D01*
X3263361Y4860013D01*
X3250032Y4873342D01*
X3330006Y4860013D02*
X3356664Y4860013D01*
X3343335Y4860013D01*
X3343335Y4939987D01*
X3330006Y4926658D01*
X3449968Y4939987D02*
X3396652Y4939987D01*
X3396652Y4900000D01*
X3423310Y4913329D01*
X3436639Y4913329D01*
X3449968Y4900000D01*
X3449968Y4873342D01*
X3436639Y4860013D01*
X3409981Y4860013D01*
X3396652Y4873342D01*
X3083355Y4839987D02*
X3083355Y4773342D01*
X3096684Y4760013D01*
X3123342Y4760013D01*
X3136671Y4773342D01*
X3136671Y4839987D01*
X3216645Y4760013D02*
X3163329Y4760013D01*
X3216645Y4813329D01*
X3216645Y4826658D01*
X3203316Y4839987D01*
X3176658Y4839987D01*
X3163329Y4826658D01*
X4043677Y2185987D02*
X4017019Y2185987D01*
X4030349Y2185987D01*
X4030349Y2119342D01*
X4017019Y2106013D01*
X4003690Y2106013D01*
X3990361Y2119342D01*
X4070336Y2106013D02*
X4096994Y2106013D01*
X4083665Y2106013D01*
X4083665Y2185987D01*
X4070336Y2172658D01*
X4136981Y2106013D02*
X4163639Y2106013D01*
X4150310Y2106013D01*
X4150310Y2185987D01*
X4136981Y2172658D01*
X1900032Y3460013D02*
X1900032Y3539987D01*
X1940019Y3539987D01*
X1953348Y3526658D01*
X1953348Y3500000D01*
X1940019Y3486671D01*
X1900032Y3486671D01*
X1926690Y3486671D02*
X1953348Y3460013D01*
X1980006Y3460013D02*
X2006665Y3460013D01*
X1993336Y3460013D01*
X1993336Y3539987D01*
X1980006Y3526658D01*
X2046652Y3539987D02*
X2099968Y3539987D01*
X2099968Y3526658D01*
X2046652Y3473342D01*
X2046652Y3460013D01*
X1633355Y3539987D02*
X1633355Y3460013D01*
X1673342Y3460013D01*
X1686671Y3473342D01*
X1686671Y3526658D01*
X1673342Y3539987D01*
X1633355Y3539987D01*
X1766645Y3460013D02*
X1713329Y3460013D01*
X1766645Y3513329D01*
X1766645Y3526658D01*
X1753316Y3539987D01*
X1726658Y3539987D01*
X1713329Y3526658D01*
X3646684Y4214987D02*
X3646684Y4135013D01*
X3686671Y4135013D01*
X3700000Y4148342D01*
X3700000Y4201658D01*
X3686671Y4214987D01*
X3646684Y4214987D01*
X3726658Y4135013D02*
X3753316Y4135013D01*
X3739987Y4135013D01*
X3739987Y4214987D01*
X3726658Y4201658D01*
X2100032Y2010013D02*
X2100032Y2089987D01*
X2140019Y2089987D01*
X2153348Y2076658D01*
X2153348Y2050000D01*
X2140019Y2036671D01*
X2100032Y2036671D01*
X2126690Y2036671D02*
X2153348Y2010013D01*
X2180006Y2010013D02*
X2206664Y2010013D01*
X2193335Y2010013D01*
X2193335Y2089987D01*
X2180006Y2076658D01*
X2299968Y2089987D02*
X2246652Y2089987D01*
X2246652Y2050000D01*
X2273310Y2063329D01*
X2286639Y2063329D01*
X2299968Y2050000D01*
X2299968Y2023342D01*
X2286639Y2010013D01*
X2259981Y2010013D01*
X2246652Y2023342D01*
X1600032Y2010013D02*
X1600032Y2089987D01*
X1640019Y2089987D01*
X1653348Y2076658D01*
X1653348Y2050000D01*
X1640019Y2036671D01*
X1600032Y2036671D01*
X1626690Y2036671D02*
X1653348Y2010013D01*
X1680006Y2010013D02*
X1706664Y2010013D01*
X1693335Y2010013D01*
X1693335Y2089987D01*
X1680006Y2076658D01*
X1786639Y2010013D02*
X1786639Y2089987D01*
X1746652Y2050000D01*
X1799968Y2050000D01*
X2963361Y2010013D02*
X2963361Y2089987D01*
X3003349Y2089987D01*
X3016677Y2076658D01*
X3016677Y2050000D01*
X3003349Y2036671D01*
X2963361Y2036671D01*
X2990019Y2036671D02*
X3016677Y2010013D01*
X3043336Y2010013D02*
X3069994Y2010013D01*
X3056665Y2010013D01*
X3056665Y2089987D01*
X3043336Y2076658D01*
X3109981Y2010013D02*
X3136639Y2010013D01*
X3123310Y2010013D01*
X3123310Y2089987D01*
X3109981Y2076658D01*
X2450032Y2010013D02*
X2450032Y2089987D01*
X2490019Y2089987D01*
X2503348Y2076658D01*
X2503348Y2050000D01*
X2490019Y2036671D01*
X2450032Y2036671D01*
X2476690Y2036671D02*
X2503348Y2010013D01*
X2530006Y2010013D02*
X2556664Y2010013D01*
X2543336Y2010013D01*
X2543336Y2089987D01*
X2530006Y2076658D01*
X2596652Y2076658D02*
X2609981Y2089987D01*
X2636639Y2089987D01*
X2649968Y2076658D01*
X2649968Y2023342D01*
X2636639Y2010013D01*
X2609981Y2010013D01*
X2596652Y2023342D01*
X2596652Y2076658D01*
X2396684Y4689987D02*
X2396684Y4623342D01*
X2410013Y4610013D01*
X2436671Y4610013D01*
X2450000Y4623342D01*
X2450000Y4689987D01*
X2476658Y4610013D02*
X2503316Y4610013D01*
X2489987Y4610013D01*
X2489987Y4689987D01*
X2476658Y4676658D01*
X3183355Y3439987D02*
X3183355Y3373342D01*
X3196684Y3360013D01*
X3223342Y3360013D01*
X3236671Y3373342D01*
X3236671Y3439987D01*
X3263329Y3373342D02*
X3276658Y3360013D01*
X3303316Y3360013D01*
X3316645Y3373342D01*
X3316645Y3426658D01*
X3303316Y3439987D01*
X3276658Y3439987D01*
X3263329Y3426658D01*
X3263329Y3413329D01*
X3276658Y3400000D01*
X3316645Y3400000D01*
X1883355Y1214987D02*
X1883355Y1148342D01*
X1896684Y1135013D01*
X1923342Y1135013D01*
X1936671Y1148342D01*
X1936671Y1214987D01*
X1963329Y1201658D02*
X1976658Y1214987D01*
X2003316Y1214987D01*
X2016645Y1201658D01*
X2016645Y1188329D01*
X2003316Y1175000D01*
X2016645Y1161671D01*
X2016645Y1148342D01*
X2003316Y1135013D01*
X1976658Y1135013D01*
X1963329Y1148342D01*
X1963329Y1161671D01*
X1976658Y1175000D01*
X1963329Y1188329D01*
X1963329Y1201658D01*
X1976658Y1175000D02*
X2003316Y1175000D01*
X2733355Y1214987D02*
X2733355Y1148342D01*
X2746684Y1135013D01*
X2773342Y1135013D01*
X2786671Y1148342D01*
X2786671Y1214987D01*
X2813329Y1214987D02*
X2866645Y1214987D01*
X2866645Y1201658D01*
X2813329Y1148342D01*
X2813329Y1135013D01*
X3558355Y1214987D02*
X3558355Y1148342D01*
X3571684Y1135013D01*
X3598342Y1135013D01*
X3611671Y1148342D01*
X3611671Y1214987D01*
X3691645Y1214987D02*
X3664987Y1201658D01*
X3638329Y1175000D01*
X3638329Y1148342D01*
X3651658Y1135013D01*
X3678316Y1135013D01*
X3691645Y1148342D01*
X3691645Y1161671D01*
X3678316Y1175000D01*
X3638329Y1175000D01*
X1583355Y3139987D02*
X1583355Y3073342D01*
X1596684Y3060013D01*
X1623342Y3060013D01*
X1636671Y3073342D01*
X1636671Y3139987D01*
X1716645Y3139987D02*
X1663329Y3139987D01*
X1663329Y3100000D01*
X1689987Y3113329D01*
X1703316Y3113329D01*
X1716645Y3100000D01*
X1716645Y3073342D01*
X1703316Y3060013D01*
X1676658Y3060013D01*
X1663329Y3073342D01*
X2733355Y3139987D02*
X2733355Y3073342D01*
X2746684Y3060013D01*
X2773342Y3060013D01*
X2786671Y3073342D01*
X2786671Y3139987D01*
X2853316Y3060013D02*
X2853316Y3139987D01*
X2813329Y3100000D01*
X2866645Y3100000D01*
X3783355Y2010013D02*
X3783355Y2089987D01*
X3823342Y2089987D01*
X3836671Y2076658D01*
X3836671Y2050000D01*
X3823342Y2036671D01*
X3783355Y2036671D01*
X3810013Y2036671D02*
X3836671Y2010013D01*
X3916645Y2089987D02*
X3863329Y2089987D01*
X3863329Y2050000D01*
X3889987Y2063329D01*
X3903316Y2063329D01*
X3916645Y2050000D01*
X3916645Y2023342D01*
X3903316Y2010013D01*
X3876658Y2010013D01*
X3863329Y2023342D01*
X3383355Y2010013D02*
X3383355Y2089987D01*
X3423342Y2089987D01*
X3436671Y2076658D01*
X3436671Y2050000D01*
X3423342Y2036671D01*
X3383355Y2036671D01*
X3410013Y2036671D02*
X3436671Y2010013D01*
X3503316Y2010013D02*
X3503316Y2089987D01*
X3463329Y2050000D01*
X3516645Y2050000D01*
X2128348Y4939987D02*
X2101690Y4939987D01*
X2115019Y4939987D01*
X2115019Y4873342D01*
X2101690Y4860013D01*
X2088361Y4860013D01*
X2075032Y4873342D01*
X2155006Y4860013D02*
X2181664Y4860013D01*
X2168336Y4860013D01*
X2168336Y4939987D01*
X2155006Y4926658D01*
X2274968Y4939987D02*
X2248310Y4926658D01*
X2221652Y4900000D01*
X2221652Y4873342D01*
X2234981Y4860013D01*
X2261639Y4860013D01*
X2274968Y4873342D01*
X2274968Y4886671D01*
X2261639Y4900000D01*
X2221652Y4900000D01*
X4903348Y5464987D02*
X4876690Y5464987D01*
X4890019Y5464987D01*
X4890019Y5398342D01*
X4876690Y5385013D01*
X4863361Y5385013D01*
X4850032Y5398342D01*
X4930006Y5385013D02*
X4956664Y5385013D01*
X4943336Y5385013D01*
X4943336Y5464987D01*
X4930006Y5451658D01*
X5036639Y5385013D02*
X5036639Y5464987D01*
X4996652Y5425000D01*
X5049968Y5425000D01*
X2103348Y4539987D02*
X2076690Y4539987D01*
X2090019Y4539987D01*
X2090019Y4473342D01*
X2076690Y4460013D01*
X2063361Y4460013D01*
X2050032Y4473342D01*
X2130006Y4460013D02*
X2156664Y4460013D01*
X2143336Y4460013D01*
X2143336Y4539987D01*
X2130006Y4526658D01*
X2196652Y4526658D02*
X2209981Y4539987D01*
X2236639Y4539987D01*
X2249968Y4526658D01*
X2249968Y4513329D01*
X2236639Y4500000D01*
X2223310Y4500000D01*
X2236639Y4500000D01*
X2249968Y4486671D01*
X2249968Y4473342D01*
X2236639Y4460013D01*
X2209981Y4460013D01*
X2196652Y4473342D01*
X2375000Y5014987D02*
X2348342Y5014987D01*
X2361671Y5014987D01*
X2361671Y4948342D01*
X2348342Y4935013D01*
X2335013Y4935013D01*
X2321684Y4948342D01*
X2401658Y4935013D02*
X2428316Y4935013D01*
X2414987Y4935013D01*
X2414987Y5014987D01*
X2401658Y5001658D01*
X4246684Y4926658D02*
X4233355Y4939987D01*
X4206697Y4939987D01*
X4193368Y4926658D01*
X4193368Y4873342D01*
X4206697Y4860013D01*
X4233355Y4860013D01*
X4246684Y4873342D01*
X4273342Y4926658D02*
X4286671Y4939987D01*
X4313329Y4939987D01*
X4326658Y4926658D01*
X4326658Y4913329D01*
X4313329Y4900000D01*
X4300000Y4900000D01*
X4313329Y4900000D01*
X4326658Y4886671D01*
X4326658Y4873342D01*
X4313329Y4860013D01*
X4286671Y4860013D01*
X4273342Y4873342D01*
X4406632Y4860013D02*
X4353316Y4860013D01*
X4406632Y4913329D01*
X4406632Y4926658D01*
X4393303Y4939987D01*
X4366645Y4939987D01*
X4353316Y4926658D01*
X3710013Y4801658D02*
X3696684Y4814987D01*
X3670026Y4814987D01*
X3656697Y4801658D01*
X3656697Y4748342D01*
X3670026Y4735013D01*
X3696684Y4735013D01*
X3710013Y4748342D01*
X3736671Y4801658D02*
X3750000Y4814987D01*
X3776658Y4814987D01*
X3789987Y4801658D01*
X3789987Y4788329D01*
X3776658Y4775000D01*
X3763329Y4775000D01*
X3776658Y4775000D01*
X3789987Y4761671D01*
X3789987Y4748342D01*
X3776658Y4735013D01*
X3750000Y4735013D01*
X3736671Y4748342D01*
X3816645Y4735013D02*
X3843303Y4735013D01*
X3829975Y4735013D01*
X3829975Y4814987D01*
X3816645Y4801658D01*
X1846684Y4801658D02*
X1833355Y4814987D01*
X1806697Y4814987D01*
X1793368Y4801658D01*
X1793368Y4748342D01*
X1806697Y4735013D01*
X1833355Y4735013D01*
X1846684Y4748342D01*
X1873342Y4801658D02*
X1886671Y4814987D01*
X1913329Y4814987D01*
X1926658Y4801658D01*
X1926658Y4788329D01*
X1913329Y4775000D01*
X1900000Y4775000D01*
X1913329Y4775000D01*
X1926658Y4761671D01*
X1926658Y4748342D01*
X1913329Y4735013D01*
X1886671Y4735013D01*
X1873342Y4748342D01*
X1953316Y4801658D02*
X1966645Y4814987D01*
X1993303Y4814987D01*
X2006632Y4801658D01*
X2006632Y4748342D01*
X1993303Y4735013D01*
X1966645Y4735013D01*
X1953316Y4748342D01*
X1953316Y4801658D01*
X3396684Y4201658D02*
X3383355Y4214987D01*
X3356697Y4214987D01*
X3343368Y4201658D01*
X3343368Y4148342D01*
X3356697Y4135013D01*
X3383355Y4135013D01*
X3396684Y4148342D01*
X3476658Y4135013D02*
X3423342Y4135013D01*
X3476658Y4188329D01*
X3476658Y4201658D01*
X3463329Y4214987D01*
X3436671Y4214987D01*
X3423342Y4201658D01*
X3503316Y4148342D02*
X3516645Y4135013D01*
X3543303Y4135013D01*
X3556632Y4148342D01*
X3556632Y4201658D01*
X3543303Y4214987D01*
X3516645Y4214987D01*
X3503316Y4201658D01*
X3503316Y4188329D01*
X3516645Y4175000D01*
X3556632Y4175000D01*
X3446684Y3951658D02*
X3433355Y3964987D01*
X3406697Y3964987D01*
X3393368Y3951658D01*
X3393368Y3898342D01*
X3406697Y3885013D01*
X3433355Y3885013D01*
X3446684Y3898342D01*
X3526658Y3885013D02*
X3473342Y3885013D01*
X3526658Y3938329D01*
X3526658Y3951658D01*
X3513329Y3964987D01*
X3486671Y3964987D01*
X3473342Y3951658D01*
X3553316Y3951658D02*
X3566645Y3964987D01*
X3593303Y3964987D01*
X3606632Y3951658D01*
X3606632Y3938329D01*
X3593303Y3925000D01*
X3606632Y3911671D01*
X3606632Y3898342D01*
X3593303Y3885013D01*
X3566645Y3885013D01*
X3553316Y3898342D01*
X3553316Y3911671D01*
X3566645Y3925000D01*
X3553316Y3938329D01*
X3553316Y3951658D01*
X3566645Y3925000D02*
X3593303Y3925000D01*
X3096684Y3276658D02*
X3083355Y3289987D01*
X3056697Y3289987D01*
X3043368Y3276658D01*
X3043368Y3223342D01*
X3056697Y3210013D01*
X3083355Y3210013D01*
X3096684Y3223342D01*
X3176658Y3210013D02*
X3123342Y3210013D01*
X3176658Y3263329D01*
X3176658Y3276658D01*
X3163329Y3289987D01*
X3136671Y3289987D01*
X3123342Y3276658D01*
X3203316Y3289987D02*
X3256632Y3289987D01*
X3256632Y3276658D01*
X3203316Y3223342D01*
X3203316Y3210013D01*
X2171684Y3351658D02*
X2158355Y3364987D01*
X2131697Y3364987D01*
X2118368Y3351658D01*
X2118368Y3298342D01*
X2131697Y3285013D01*
X2158355Y3285013D01*
X2171684Y3298342D01*
X2251658Y3285013D02*
X2198342Y3285013D01*
X2251658Y3338329D01*
X2251658Y3351658D01*
X2238329Y3364987D01*
X2211671Y3364987D01*
X2198342Y3351658D01*
X2331632Y3364987D02*
X2304974Y3351658D01*
X2278316Y3325000D01*
X2278316Y3298342D01*
X2291645Y3285013D01*
X2318303Y3285013D01*
X2331632Y3298342D01*
X2331632Y3311671D01*
X2318303Y3325000D01*
X2278316Y3325000D01*
X2196684Y1876658D02*
X2183355Y1889987D01*
X2156697Y1889987D01*
X2143368Y1876658D01*
X2143368Y1823342D01*
X2156697Y1810013D01*
X2183355Y1810013D01*
X2196684Y1823342D01*
X2276658Y1810013D02*
X2223342Y1810013D01*
X2276658Y1863329D01*
X2276658Y1876658D01*
X2263329Y1889987D01*
X2236671Y1889987D01*
X2223342Y1876658D01*
X2356632Y1889987D02*
X2303316Y1889987D01*
X2303316Y1850000D01*
X2329974Y1863329D01*
X2343303Y1863329D01*
X2356632Y1850000D01*
X2356632Y1823342D01*
X2343303Y1810013D01*
X2316645Y1810013D01*
X2303316Y1823342D01*
X1596684Y1876658D02*
X1583355Y1889987D01*
X1556697Y1889987D01*
X1543368Y1876658D01*
X1543368Y1823342D01*
X1556697Y1810013D01*
X1583355Y1810013D01*
X1596684Y1823342D01*
X1676658Y1810013D02*
X1623342Y1810013D01*
X1676658Y1863329D01*
X1676658Y1876658D01*
X1663329Y1889987D01*
X1636671Y1889987D01*
X1623342Y1876658D01*
X1743303Y1810013D02*
X1743303Y1889987D01*
X1703316Y1850000D01*
X1756632Y1850000D01*
X2446684Y1876658D02*
X2433355Y1889987D01*
X2406697Y1889987D01*
X2393368Y1876658D01*
X2393368Y1823342D01*
X2406697Y1810013D01*
X2433355Y1810013D01*
X2446684Y1823342D01*
X2526658Y1810013D02*
X2473342Y1810013D01*
X2526658Y1863329D01*
X2526658Y1876658D01*
X2513329Y1889987D01*
X2486671Y1889987D01*
X2473342Y1876658D01*
X2553316Y1876658D02*
X2566645Y1889987D01*
X2593303Y1889987D01*
X2606632Y1876658D01*
X2606632Y1823342D01*
X2593303Y1810013D01*
X2566645Y1810013D01*
X2553316Y1823342D01*
X2553316Y1876658D01*
X3053348Y1876658D02*
X3040019Y1889987D01*
X3013361Y1889987D01*
X3000032Y1876658D01*
X3000032Y1823342D01*
X3013361Y1810013D01*
X3040019Y1810013D01*
X3053348Y1823342D01*
X3080006Y1810013D02*
X3106664Y1810013D01*
X3093335Y1810013D01*
X3093335Y1889987D01*
X3080006Y1876658D01*
X3146652Y1823342D02*
X3159981Y1810013D01*
X3186639Y1810013D01*
X3199968Y1823342D01*
X3199968Y1876658D01*
X3186639Y1889987D01*
X3159981Y1889987D01*
X3146652Y1876658D01*
X3146652Y1863329D01*
X3159981Y1850000D01*
X3199968Y1850000D01*
X3303348Y1876658D02*
X3290019Y1889987D01*
X3263361Y1889987D01*
X3250032Y1876658D01*
X3250032Y1823342D01*
X3263361Y1810013D01*
X3290019Y1810013D01*
X3303348Y1823342D01*
X3330006Y1810013D02*
X3356664Y1810013D01*
X3343335Y1810013D01*
X3343335Y1889987D01*
X3330006Y1876658D01*
X3449968Y1889987D02*
X3396652Y1889987D01*
X3396652Y1850000D01*
X3423310Y1863329D01*
X3436639Y1863329D01*
X3449968Y1850000D01*
X3449968Y1823342D01*
X3436639Y1810013D01*
X3409981Y1810013D01*
X3396652Y1823342D01*
X3903348Y1876658D02*
X3890019Y1889987D01*
X3863361Y1889987D01*
X3850032Y1876658D01*
X3850032Y1823342D01*
X3863361Y1810013D01*
X3890019Y1810013D01*
X3903348Y1823342D01*
X3930006Y1810013D02*
X3956664Y1810013D01*
X3943336Y1810013D01*
X3943336Y1889987D01*
X3930006Y1876658D01*
X4036639Y1810013D02*
X4036639Y1889987D01*
X3996652Y1850000D01*
X4049968Y1850000D01*
X2130818Y2226658D02*
X2117489Y2239987D01*
X2090831Y2239987D01*
X2077502Y2226658D01*
X2077502Y2173342D01*
X2090831Y2160013D01*
X2117489Y2160013D01*
X2130818Y2173342D01*
X2157476Y2160013D02*
X2184134Y2160013D01*
X2170805Y2160013D01*
X2170805Y2239987D01*
X2157476Y2226658D01*
X2224122Y2226658D02*
X2237451Y2239987D01*
X2264109Y2239987D01*
X2277438Y2226658D01*
X2277438Y2173342D01*
X2264109Y2160013D01*
X2237451Y2160013D01*
X2224122Y2173342D01*
X2224122Y2226658D01*
X2236671Y3126658D02*
X2223342Y3139987D01*
X2196684Y3139987D01*
X2183355Y3126658D01*
X2183355Y3073342D01*
X2196684Y3060013D01*
X2223342Y3060013D01*
X2236671Y3073342D01*
X2263329Y3073342D02*
X2276658Y3060013D01*
X2303316Y3060013D01*
X2316645Y3073342D01*
X2316645Y3126658D01*
X2303316Y3139987D01*
X2276658Y3139987D01*
X2263329Y3126658D01*
X2263329Y3113329D01*
X2276658Y3100000D01*
X2316645Y3100000D01*
X3336671Y2226658D02*
X3323342Y2239987D01*
X3296684Y2239987D01*
X3283355Y2226658D01*
X3283355Y2173342D01*
X3296684Y2160013D01*
X3323342Y2160013D01*
X3336671Y2173342D01*
X3363329Y2226658D02*
X3376658Y2239987D01*
X3403316Y2239987D01*
X3416645Y2226658D01*
X3416645Y2213329D01*
X3403316Y2200000D01*
X3416645Y2186671D01*
X3416645Y2173342D01*
X3403316Y2160013D01*
X3376658Y2160013D01*
X3363329Y2173342D01*
X3363329Y2186671D01*
X3376658Y2200000D01*
X3363329Y2213329D01*
X3363329Y2226658D01*
X3376658Y2200000D02*
X3403316Y2200000D01*
X3386671Y3126658D02*
X3373342Y3139987D01*
X3346684Y3139987D01*
X3333355Y3126658D01*
X3333355Y3073342D01*
X3346684Y3060013D01*
X3373342Y3060013D01*
X3386671Y3073342D01*
X3413329Y3139987D02*
X3466645Y3139987D01*
X3466645Y3126658D01*
X3413329Y3073342D01*
X3413329Y3060013D01*
X3798342Y4561671D02*
X3785013Y4548342D01*
X3785013Y4521684D01*
X3798342Y4508355D01*
X3851658Y4508355D01*
X3864987Y4521684D01*
X3864987Y4548342D01*
X3851658Y4561671D01*
X3798342Y4588329D02*
X3785013Y4601658D01*
X3785013Y4628316D01*
X3798342Y4641645D01*
X3811671Y4641645D01*
X3825000Y4628316D01*
X3825000Y4614987D01*
X3825000Y4628316D01*
X3838329Y4641645D01*
X3851658Y4641645D01*
X3864987Y4628316D01*
X3864987Y4601658D01*
X3851658Y4588329D01*
X3036671Y4626658D02*
X3023342Y4639987D01*
X2996684Y4639987D01*
X2983355Y4626658D01*
X2983355Y4573342D01*
X2996684Y4560013D01*
X3023342Y4560013D01*
X3036671Y4573342D01*
X3116645Y4560013D02*
X3063329Y4560013D01*
X3116645Y4613329D01*
X3116645Y4626658D01*
X3103316Y4639987D01*
X3076658Y4639987D01*
X3063329Y4626658D01*
X2750000Y4976658D02*
X2736671Y4989987D01*
X2710013Y4989987D01*
X2696684Y4976658D01*
X2696684Y4923342D01*
X2710013Y4910013D01*
X2736671Y4910013D01*
X2750000Y4923342D01*
X2776658Y4910013D02*
X2803316Y4910013D01*
X2789987Y4910013D01*
X2789987Y4989987D01*
X2776658Y4976658D01*
D67*
X3089370Y5217360D02*
X3089370Y5257360D01*
X2329370Y5217360D02*
X2329370Y5257360D01*
X2329370Y5477360D02*
X2329370Y5507360D01*
X3089370Y5477360D02*
X3089370Y5507360D01*
X2329370Y5512360D02*
X3089370Y5512360D01*
D68*
X1575400Y1125400D02*
X1575400Y1225368D01*
X1608722Y1192045D01*
X1642045Y1225368D01*
X1642045Y1125400D01*
X1675368Y1208706D02*
X1692029Y1225368D01*
X1725352Y1225368D01*
X1742013Y1208706D01*
X1742013Y1192045D01*
X1725352Y1175384D01*
X1708690Y1175384D01*
X1725352Y1175384D01*
X1742013Y1158723D01*
X1742013Y1142061D01*
X1725352Y1125400D01*
X1692029Y1125400D01*
X1675368Y1142061D01*
X1775336Y1175384D02*
X1841981Y1175384D01*
X3250400Y1125400D02*
X3250400Y1225368D01*
X3283722Y1192045D01*
X3317045Y1225368D01*
X3317045Y1125400D01*
X3350368Y1125400D02*
X3383690Y1125400D01*
X3367029Y1125400D01*
X3367029Y1225368D01*
X3350368Y1208706D01*
X3433674Y1175384D02*
X3500319Y1175384D01*
X2075400Y1125400D02*
X2075400Y1225368D01*
X2108722Y1192045D01*
X2142045Y1225368D01*
X2142045Y1125400D01*
X2175368Y1208706D02*
X2192029Y1225368D01*
X2225352Y1225368D01*
X2242013Y1208706D01*
X2242013Y1192045D01*
X2225352Y1175384D01*
X2208690Y1175384D01*
X2225352Y1175384D01*
X2242013Y1158723D01*
X2242013Y1142061D01*
X2225352Y1125400D01*
X2192029Y1125400D01*
X2175368Y1142061D01*
X2275336Y1175384D02*
X2341981Y1175384D01*
X2308658Y1208706D02*
X2308658Y1142061D01*
X5075400Y1725368D02*
X5075400Y1625400D01*
X5125384Y1625400D01*
X5142045Y1642061D01*
X5142045Y1658723D01*
X5125384Y1675384D01*
X5075400Y1675384D01*
X5125384Y1675384D01*
X5142045Y1692045D01*
X5142045Y1708707D01*
X5125384Y1725368D01*
X5075400Y1725368D01*
X5175368Y1625400D02*
X5175368Y1692045D01*
X5208690Y1725368D01*
X5242013Y1692045D01*
X5242013Y1625400D01*
X5242013Y1675384D01*
X5175368Y1675384D01*
X5275336Y1725368D02*
X5341981Y1725368D01*
X5308658Y1725368D01*
X5308658Y1625400D01*
X5375303Y1675384D02*
X5441948Y1675384D01*
X5408626Y1708707D02*
X5408626Y1642061D01*
X2925400Y1125400D02*
X2925400Y1225368D01*
X2958723Y1192045D01*
X2992045Y1225368D01*
X2992045Y1125400D01*
X3092013Y1125400D02*
X3025368Y1125400D01*
X3092013Y1192045D01*
X3092013Y1208706D01*
X3075352Y1225368D01*
X3042029Y1225368D01*
X3025368Y1208706D01*
X3125336Y1175384D02*
X3191981Y1175384D01*
X3158658Y1208706D02*
X3158658Y1142061D01*
X2425400Y1125400D02*
X2425400Y1225368D01*
X2458723Y1192045D01*
X2492045Y1225368D01*
X2492045Y1125400D01*
X2592013Y1125400D02*
X2525368Y1125400D01*
X2592013Y1192045D01*
X2592013Y1208706D01*
X2575352Y1225368D01*
X2542029Y1225368D01*
X2525368Y1208706D01*
X2625336Y1175384D02*
X2691981Y1175384D01*
X3750400Y1125400D02*
X3750400Y1225368D01*
X3783722Y1192045D01*
X3817045Y1225368D01*
X3817045Y1125400D01*
X3850368Y1125400D02*
X3883690Y1125400D01*
X3867029Y1125400D01*
X3867029Y1225368D01*
X3850368Y1208706D01*
X3933674Y1175384D02*
X4000319Y1175384D01*
X3966997Y1208706D02*
X3966997Y1142061D01*
X4550400Y1250368D02*
X4617045Y1250368D01*
X4583723Y1250368D01*
X4583723Y1150400D01*
X4650368Y1250368D02*
X4650368Y1150400D01*
X4650368Y1200384D01*
X4717013Y1200384D01*
X4717013Y1250368D01*
X4717013Y1150400D01*
X4750336Y1150400D02*
X4750336Y1250368D01*
X4800320Y1250368D01*
X4816981Y1233706D01*
X4816981Y1200384D01*
X4800320Y1183723D01*
X4750336Y1183723D01*
X4783658Y1183723D02*
X4816981Y1150400D01*
X4850303Y1250368D02*
X4850303Y1150400D01*
X4883626Y1183723D01*
X4916949Y1150400D01*
X4916949Y1250368D01*
X4950271Y1200384D02*
X5016916Y1200384D01*
X5075400Y1250368D02*
X5075400Y1150400D01*
X5125384Y1150400D01*
X5142045Y1167061D01*
X5142045Y1183723D01*
X5125384Y1200384D01*
X5075400Y1200384D01*
X5125384Y1200384D01*
X5142045Y1217045D01*
X5142045Y1233706D01*
X5125384Y1250368D01*
X5075400Y1250368D01*
X5175368Y1150400D02*
X5175368Y1217045D01*
X5208690Y1250368D01*
X5242013Y1217045D01*
X5242013Y1150400D01*
X5242013Y1200384D01*
X5175368Y1200384D01*
X5275336Y1250368D02*
X5341981Y1250368D01*
X5308658Y1250368D01*
X5308658Y1150400D01*
X5375303Y1200384D02*
X5441948Y1200384D01*
X4050400Y1253708D02*
X4117045Y1253708D01*
X4083722Y1253708D01*
X4083722Y1153740D01*
X4150368Y1253708D02*
X4150368Y1153740D01*
X4150368Y1203724D01*
X4217013Y1203724D01*
X4217013Y1253708D01*
X4217013Y1153740D01*
X4250335Y1153740D02*
X4250335Y1253708D01*
X4300319Y1253708D01*
X4316980Y1237046D01*
X4316980Y1203724D01*
X4300319Y1187062D01*
X4250335Y1187062D01*
X4283658Y1187062D02*
X4316980Y1153740D01*
X4350303Y1253708D02*
X4350303Y1153740D01*
X4383626Y1187062D01*
X4416948Y1153740D01*
X4416948Y1253708D01*
X4450271Y1203724D02*
X4516916Y1203724D01*
X4483594Y1237046D02*
X4483594Y1170401D01*
X4204350Y1655518D02*
X4270995Y1655518D01*
X4237673Y1655518D01*
X4237673Y1555550D01*
X4304318Y1655518D02*
X4304318Y1555550D01*
X4304318Y1605534D01*
X4370963Y1605534D01*
X4370963Y1655518D01*
X4370963Y1555550D01*
X4404286Y1555550D02*
X4404286Y1655518D01*
X4454269Y1655518D01*
X4470931Y1638857D01*
X4470931Y1605534D01*
X4454269Y1588873D01*
X4404286Y1588873D01*
X4437608Y1588873D02*
X4470931Y1555550D01*
X4504253Y1655518D02*
X4504253Y1555550D01*
X4537576Y1588873D01*
X4570898Y1555550D01*
X4570898Y1655518D01*
X4704189Y1555550D02*
X4704189Y1655518D01*
X4754173Y1655518D01*
X4770834Y1638857D01*
X4770834Y1605534D01*
X4754173Y1588873D01*
X4704189Y1588873D01*
X4804157Y1655518D02*
X4804157Y1555550D01*
X4837479Y1588873D01*
X4870802Y1555550D01*
X4870802Y1655518D01*
X4904125Y1555550D02*
X4904125Y1655518D01*
X4937447Y1622195D01*
X4970770Y1655518D01*
X4970770Y1555550D01*
X3838095Y4955518D02*
X3771450Y4955518D01*
X3771450Y4855550D01*
X3838095Y4855550D01*
X3771450Y4905534D02*
X3804772Y4905534D01*
X3871418Y4855550D02*
X3871418Y4955518D01*
X3938063Y4855550D01*
X3938063Y4955518D01*
X4038031Y4938857D02*
X4021369Y4955518D01*
X3988047Y4955518D01*
X3971386Y4938857D01*
X3971386Y4872211D01*
X3988047Y4855550D01*
X4021369Y4855550D01*
X4038031Y4872211D01*
X4137998Y4855550D02*
X4071353Y4855550D01*
X4137998Y4922195D01*
X4137998Y4938857D01*
X4121337Y4955518D01*
X4088015Y4955518D01*
X4071353Y4938857D01*
X1417045Y4925368D02*
X1350400Y4925368D01*
X1350400Y4825400D01*
X1417045Y4825400D01*
X1350400Y4875384D02*
X1383722Y4875384D01*
X1450368Y4825400D02*
X1450368Y4925368D01*
X1517013Y4825400D01*
X1517013Y4925368D01*
X1616981Y4908706D02*
X1600319Y4925368D01*
X1566997Y4925368D01*
X1550335Y4908706D01*
X1550335Y4842061D01*
X1566997Y4825400D01*
X1600319Y4825400D01*
X1616981Y4842061D01*
X1650303Y4908706D02*
X1666965Y4925368D01*
X1700287Y4925368D01*
X1716948Y4908706D01*
X1716948Y4892045D01*
X1700287Y4875384D01*
X1683626Y4875384D01*
X1700287Y4875384D01*
X1716948Y4858723D01*
X1716948Y4842061D01*
X1700287Y4825400D01*
X1666965Y4825400D01*
X1650303Y4842061D01*
X4817045Y4950368D02*
X4750400Y4950368D01*
X4750400Y4850400D01*
X4817045Y4850400D01*
X4750400Y4900384D02*
X4783722Y4900384D01*
X4850368Y4850400D02*
X4850368Y4950368D01*
X4917013Y4850400D01*
X4917013Y4950368D01*
X5016981Y4933706D02*
X5000319Y4950368D01*
X4966997Y4950368D01*
X4950336Y4933706D01*
X4950336Y4867061D01*
X4966997Y4850400D01*
X5000319Y4850400D01*
X5016981Y4867061D01*
X5050303Y4850400D02*
X5083626Y4850400D01*
X5066965Y4850400D01*
X5066965Y4950368D01*
X5050303Y4933706D01*
D69*
X2528470Y4895359D02*
X2613109Y4810720D01*
X2528470Y4810720D02*
X2613109Y4895359D01*
X2528470Y4853039D02*
X2613109Y4853039D01*
X2570790Y4810720D02*
X2570790Y4895359D01*
X2416616Y3274310D02*
X2501255Y3358949D01*
X2501255Y3274310D02*
X2416616Y3358949D01*
X2458936Y3274310D02*
X2458936Y3358949D01*
X2501255Y3316629D02*
X2416616Y3316629D01*
X3840939Y2979625D02*
X3756300Y2894986D01*
X3756300Y2979625D02*
X3840939Y2894986D01*
X3798620Y2979625D02*
X3798620Y2894986D01*
X3756300Y2937306D02*
X3840939Y2937306D01*
X2690939Y2979625D02*
X2606300Y2894986D01*
X2606300Y2979625D02*
X2690939Y2894986D01*
X2648620Y2979625D02*
X2648620Y2894986D01*
X2606300Y2937306D02*
X2690939Y2937306D01*
%TF.MD5,7b6e1c51d87f5f1b50b9ef6fe24e670f*%
M02*
