%TF.GenerationSoftware,Altium Limited,Altium Designer,22.9.1 (49)*%
G04 Layer_Color=8388736*
%FSLAX45Y45*%
%MOMM*%
%TF.SameCoordinates,980CB771-C75C-4F2C-B837-E40D3F653A85*%
%TF.FilePolarity,Negative*%
%TF.FileFunction,Soldermask,Top*%
%TF.Part,Single*%
G01*
G75*
%TA.AperFunction,SMDPad,CuDef*%
%ADD14R,1.00330X0.50800*%
%ADD16R,1.35890X0.50080*%
%ADD17R,0.50080X1.35890*%
%ADD28R,0.53340X1.46170*%
%ADD59R,0.96360X0.98900*%
%ADD60R,0.86200X0.91280*%
%ADD61R,0.91280X0.86200*%
%ADD62R,1.44620X1.16680*%
%TA.AperFunction,ComponentPad*%
%ADD63C,1.40000*%
%ADD64C,0.10000*%
%ADD65O,1.00000X1.90000*%
%TA.AperFunction,ViaPad*%
%ADD66C,1.10000*%
%TA.AperFunction,ConnectorPad*%
%ADD70R,1.70000X1.50000*%
%ADD71R,0.50000X1.45000*%
%TA.AperFunction,SMDPad,CuDef*%
%ADD72R,2.00000X2.00000*%
%ADD73R,3.10000X3.10000*%
%ADD74R,2.89000X0.84000*%
%ADD75R,0.90000X0.90000*%
%ADD76R,0.98900X0.96360*%
%ADD77R,0.70000X1.35000*%
%ADD78R,3.10000X3.10000*%
G36*
X3742500Y1727370D02*
X3742500Y1677370D01*
X3732500Y1667370D01*
X3717500Y1667370D01*
X3707500Y1677370D01*
X3707500Y1727370D01*
X3717500Y1737370D01*
X3732500Y1737370D01*
X3742500Y1727370D01*
X3742500Y1727370D02*
G37*
G36*
X3692500Y1727370D02*
X3692500Y1677370D01*
X3682500Y1667370D01*
X3667500Y1667370D01*
X3657500Y1677370D01*
X3657500Y1727370D01*
X3667500Y1737370D01*
X3682500Y1737370D01*
X3692500Y1727370D01*
X3692500Y1727370D02*
G37*
G36*
X3642500Y1727370D02*
X3642500Y1677370D01*
X3632500Y1667370D01*
X3617500Y1667370D01*
X3607500Y1677370D01*
X3607500Y1727370D01*
X3617500Y1737370D01*
X3632500Y1737370D01*
X3642500Y1727370D01*
X3642500Y1727370D02*
G37*
G36*
X3592500Y1727370D02*
X3592500Y1677370D01*
X3582500Y1667370D01*
X3567500Y1667370D01*
X3557500Y1677370D01*
X3557500Y1727370D01*
X3567500Y1737370D01*
X3582500Y1737370D01*
X3592500Y1727370D01*
X3592500Y1727370D02*
G37*
G36*
X2892500Y1722370D02*
X2892500Y1672370D01*
X2882500Y1662370D01*
X2867500Y1662370D01*
X2857500Y1672370D01*
X2857500Y1722370D01*
X2867500Y1732370D01*
X2882500Y1732370D01*
X2892500Y1722370D01*
X2892500Y1722370D02*
G37*
G36*
X2842500Y1722370D02*
X2842500Y1672370D01*
X2832500Y1662370D01*
X2817500Y1662370D01*
X2807500Y1672370D01*
X2807500Y1722370D01*
X2817500Y1732370D01*
X2832500Y1732370D01*
X2842500Y1722370D01*
X2842500Y1722370D02*
G37*
G36*
X2792500Y1722370D02*
X2792500Y1672370D01*
X2782500Y1662370D01*
X2767500Y1662370D01*
X2757500Y1672370D01*
X2757500Y1722370D01*
X2767500Y1732370D01*
X2782500Y1732370D01*
X2792500Y1722370D01*
X2792500Y1722370D02*
G37*
G36*
X2742500Y1722370D02*
X2742500Y1672370D01*
X2732500Y1662370D01*
X2717500Y1662370D01*
X2707500Y1672370D01*
X2707500Y1722370D01*
X2717500Y1732370D01*
X2732500Y1732370D01*
X2742500Y1722370D01*
X2742500Y1722370D02*
G37*
G36*
X2042500Y1722370D02*
X2042500Y1672370D01*
X2032500Y1662370D01*
X2017500Y1662370D01*
X2007500Y1672370D01*
X2007500Y1722370D01*
X2017500Y1732370D01*
X2032500Y1732370D01*
X2042500Y1722370D01*
X2042500Y1722370D02*
G37*
G36*
X1992500Y1722370D02*
X1992500Y1672370D01*
X1982500Y1662370D01*
X1967500Y1662370D01*
X1957500Y1672370D01*
X1957500Y1722370D01*
X1967500Y1732370D01*
X1982500Y1732370D01*
X1992500Y1722370D01*
X1992500Y1722370D02*
G37*
G36*
X1942500Y1722370D02*
X1942500Y1672370D01*
X1932500Y1662370D01*
X1917500Y1662370D01*
X1907500Y1672370D01*
X1907500Y1722370D01*
X1917500Y1732370D01*
X1932500Y1732370D01*
X1942500Y1722370D01*
X1942500Y1722370D02*
G37*
G36*
X1892500Y1722370D02*
X1892500Y1672370D01*
X1882500Y1662370D01*
X1867500Y1662370D01*
X1857500Y1672370D01*
X1857500Y1722370D01*
X1867500Y1732370D01*
X1882500Y1732370D01*
X1892500Y1722370D01*
X1892500Y1722370D02*
G37*
G36*
X3825000Y1657370D02*
X3825000Y1642370D01*
X3815000Y1632370D01*
X3765000Y1632370D01*
X3755000Y1642370D01*
X3755000Y1657370D01*
X3765000Y1667370D01*
X3815000Y1667370D01*
X3825000Y1657370D01*
X3825000Y1657370D02*
G37*
G36*
X3545000Y1657370D02*
X3545000Y1642370D01*
X3535000Y1632370D01*
X3485000Y1632370D01*
X3475000Y1642370D01*
X3475000Y1657370D01*
X3485000Y1667370D01*
X3535000Y1667370D01*
X3545000Y1657370D01*
X3545000Y1657370D02*
G37*
G36*
X2975000Y1652370D02*
X2975000Y1637370D01*
X2965000Y1627370D01*
X2915000Y1627370D01*
X2905000Y1637370D01*
X2905000Y1652370D01*
X2915000Y1662370D01*
X2965000Y1662370D01*
X2975000Y1652370D01*
X2975000Y1652370D02*
G37*
G36*
X2695000Y1652370D02*
X2695000Y1637370D01*
X2685000Y1627370D01*
X2635000Y1627370D01*
X2625000Y1637370D01*
X2625000Y1652370D01*
X2635000Y1662370D01*
X2685000Y1662370D01*
X2695000Y1652370D01*
X2695000Y1652370D02*
G37*
G36*
X2125000Y1652370D02*
X2125000Y1637370D01*
X2115000Y1627370D01*
X2065000Y1627370D01*
X2055000Y1637370D01*
X2055000Y1652370D01*
X2065000Y1662370D01*
X2115000Y1662370D01*
X2125000Y1652370D01*
X2125000Y1652370D02*
G37*
G36*
X1845000Y1652370D02*
X1845000Y1637370D01*
X1835000Y1627370D01*
X1785000Y1627370D01*
X1775000Y1637370D01*
X1775000Y1652370D01*
X1785000Y1662370D01*
X1835000Y1662370D01*
X1845000Y1652370D01*
X1845000Y1652370D02*
G37*
G36*
X3825000Y1607370D02*
X3825000Y1592370D01*
X3815000Y1582370D01*
X3765000Y1582370D01*
X3755000Y1592370D01*
X3755000Y1607370D01*
X3765000Y1617370D01*
X3815000Y1617370D01*
X3825000Y1607370D01*
X3825000Y1607370D02*
G37*
G36*
X3545000Y1607370D02*
X3545000Y1592370D01*
X3535000Y1582370D01*
X3485000Y1582370D01*
X3475000Y1592370D01*
X3475000Y1607370D01*
X3485000Y1617370D01*
X3535000Y1617370D01*
X3545000Y1607370D01*
X3545000Y1607370D02*
G37*
G36*
X2975000Y1602370D02*
X2975000Y1587370D01*
X2965000Y1577370D01*
X2915000Y1577370D01*
X2905000Y1587370D01*
X2905000Y1602370D01*
X2915000Y1612370D01*
X2965000Y1612370D01*
X2975000Y1602370D01*
X2975000Y1602370D02*
G37*
G36*
X2695000Y1602370D02*
X2695000Y1587370D01*
X2685000Y1577370D01*
X2635000Y1577370D01*
X2625000Y1587370D01*
X2625000Y1602370D01*
X2635000Y1612370D01*
X2685000Y1612370D01*
X2695000Y1602370D01*
X2695000Y1602370D02*
G37*
G36*
X2125000Y1602370D02*
X2125000Y1587370D01*
X2115000Y1577370D01*
X2065000Y1577370D01*
X2055000Y1587370D01*
X2055000Y1602370D01*
X2065000Y1612370D01*
X2115000Y1612370D01*
X2125000Y1602370D01*
X2125000Y1602370D02*
G37*
G36*
X1845000Y1602370D02*
X1845000Y1587370D01*
X1835000Y1577370D01*
X1785000Y1577370D01*
X1775000Y1587370D01*
X1775000Y1602370D01*
X1785000Y1612370D01*
X1835000Y1612370D01*
X1845000Y1602370D01*
X1845000Y1602370D02*
G37*
G36*
X3825000Y1557370D02*
X3825000Y1542370D01*
X3815000Y1532370D01*
X3765000Y1532370D01*
X3755000Y1542370D01*
X3755000Y1557370D01*
X3765000Y1567370D01*
X3815000Y1567370D01*
X3825000Y1557370D01*
X3825000Y1557370D02*
G37*
G36*
X3545000Y1557370D02*
X3545000Y1542370D01*
X3535000Y1532370D01*
X3485000Y1532370D01*
X3475000Y1542370D01*
X3475000Y1557370D01*
X3485000Y1567370D01*
X3535000Y1567370D01*
X3545000Y1557370D01*
X3545000Y1557370D02*
G37*
G36*
X2975000Y1552370D02*
X2975000Y1537370D01*
X2965000Y1527370D01*
X2915000Y1527370D01*
X2905000Y1537370D01*
X2905000Y1552370D01*
X2915000Y1562370D01*
X2965000Y1562370D01*
X2975000Y1552370D01*
X2975000Y1552370D02*
G37*
G36*
X2695000Y1552370D02*
X2695000Y1537370D01*
X2685000Y1527370D01*
X2635000Y1527370D01*
X2625000Y1537370D01*
X2625000Y1552370D01*
X2635000Y1562370D01*
X2685000Y1562370D01*
X2695000Y1552370D01*
X2695000Y1552370D02*
G37*
G36*
X2125000Y1552370D02*
X2125000Y1537370D01*
X2115000Y1527370D01*
X2065000Y1527370D01*
X2055000Y1537370D01*
X2055000Y1552370D01*
X2065000Y1562370D01*
X2115000Y1562370D01*
X2125000Y1552370D01*
X2125000Y1552370D02*
G37*
G36*
X1845000Y1552370D02*
X1845000Y1537370D01*
X1835000Y1527370D01*
X1785000Y1527370D01*
X1775000Y1537370D01*
X1775000Y1552370D01*
X1785000Y1562370D01*
X1835000Y1562370D01*
X1845000Y1552370D01*
X1845000Y1552370D02*
G37*
G36*
X3785000Y1504873D02*
X3815000Y1504873D01*
X3820000Y1499873D01*
X3820000Y1484873D01*
X3815000Y1479873D01*
X3785000Y1479873D01*
X3785000Y1472373D01*
X3667500Y1472373D01*
X3662500Y1477373D01*
X3662500Y1507373D01*
X3667500Y1512373D01*
X3785000Y1512373D01*
X3785000Y1504873D01*
X3785000Y1504873D02*
G37*
G36*
X3637500Y1507370D02*
X3637500Y1477370D01*
X3632500Y1472370D01*
X3515000Y1472370D01*
X3515000Y1479870D01*
X3485000Y1479870D01*
X3480000Y1484870D01*
X3480000Y1499870D01*
X3485000Y1504870D01*
X3515000Y1504870D01*
X3515000Y1512370D01*
X3632500Y1512370D01*
X3637500Y1507370D01*
X3637500Y1507370D02*
G37*
G36*
X2935000Y1499873D02*
X2965000Y1499873D01*
X2970000Y1494873D01*
X2970000Y1479873D01*
X2965000Y1474873D01*
X2935000Y1474873D01*
X2935000Y1467373D01*
X2817500Y1467373D01*
X2812500Y1472373D01*
X2812500Y1502373D01*
X2817500Y1507373D01*
X2935000Y1507373D01*
X2935000Y1499873D01*
X2935000Y1499873D02*
G37*
G36*
X2085000Y1499873D02*
X2115000Y1499873D01*
X2120000Y1494873D01*
X2120000Y1479873D01*
X2115000Y1474873D01*
X2085000Y1474873D01*
X2085000Y1467373D01*
X1967500Y1467373D01*
X1962500Y1472373D01*
X1962500Y1502373D01*
X1967500Y1507373D01*
X2085000Y1507373D01*
X2085000Y1499873D01*
X2085000Y1499873D02*
G37*
G36*
X2787500Y1502370D02*
X2787500Y1472370D01*
X2782500Y1467370D01*
X2665000Y1467370D01*
X2665000Y1474870D01*
X2635000Y1474870D01*
X2630000Y1479870D01*
X2630000Y1494870D01*
X2635000Y1499870D01*
X2665000Y1499870D01*
X2665000Y1507370D01*
X2782500Y1507370D01*
X2787500Y1502370D01*
X2787500Y1502370D02*
G37*
G36*
X1937500Y1502370D02*
X1937500Y1472370D01*
X1932500Y1467370D01*
X1815000Y1467370D01*
X1815000Y1474870D01*
X1785000Y1474870D01*
X1780000Y1479870D01*
X1780000Y1494870D01*
X1785000Y1499870D01*
X1815000Y1499870D01*
X1815000Y1507370D01*
X1932500Y1507370D01*
X1937500Y1502370D01*
X1937500Y1502370D02*
G37*
G36*
X3785000Y1434872D02*
X3815000Y1434872D01*
X3820000Y1429872D01*
X3820000Y1414872D01*
X3815000Y1409872D01*
X3785000Y1409872D01*
X3785000Y1402372D01*
X3667500Y1402372D01*
X3662500Y1407372D01*
X3662500Y1437372D01*
X3667500Y1442372D01*
X3785000Y1442372D01*
X3785000Y1434872D01*
X3785000Y1434872D02*
G37*
G36*
X3637503Y1437368D02*
X3637502Y1407369D01*
X3632503Y1402369D01*
X3515002Y1402369D01*
X3515002Y1409869D01*
X3485002Y1409869D01*
X3480002Y1414869D01*
X3480002Y1429869D01*
X3485002Y1434868D01*
X3515002Y1434869D01*
X3515002Y1442368D01*
X3632502Y1442368D01*
X3637503Y1437368D01*
X3637503Y1437368D02*
G37*
G36*
X2935000Y1429872D02*
X2965000Y1429872D01*
X2970000Y1424872D01*
X2970000Y1409872D01*
X2965000Y1404872D01*
X2935000Y1404872D01*
X2935000Y1397372D01*
X2817500Y1397372D01*
X2812500Y1402372D01*
X2812500Y1432372D01*
X2817500Y1437372D01*
X2935000Y1437372D01*
X2935000Y1429872D01*
X2935000Y1429872D02*
G37*
G36*
X2085000Y1429872D02*
X2115000Y1429872D01*
X2120000Y1424872D01*
X2120000Y1409872D01*
X2115000Y1404872D01*
X2085000Y1404872D01*
X2085000Y1397372D01*
X1967500Y1397372D01*
X1962500Y1402372D01*
X1962500Y1432372D01*
X1967500Y1437372D01*
X2085000Y1437372D01*
X2085000Y1429872D01*
X2085000Y1429872D02*
G37*
G36*
X2787502Y1432368D02*
X2787502Y1402369D01*
X2782502Y1397369D01*
X2665002Y1397369D01*
X2665002Y1404869D01*
X2635002Y1404869D01*
X2630002Y1409869D01*
X2630002Y1424869D01*
X2635002Y1429868D01*
X2665002Y1429869D01*
X2665002Y1437368D01*
X2782502Y1437368D01*
X2787502Y1432368D01*
X2787502Y1432368D02*
G37*
G36*
X1937502Y1432368D02*
X1937502Y1402369D01*
X1932502Y1397369D01*
X1815002Y1397369D01*
X1815002Y1404869D01*
X1785002Y1404869D01*
X1780002Y1409869D01*
X1780002Y1424869D01*
X1785002Y1429868D01*
X1815002Y1429869D01*
X1815002Y1437368D01*
X1932502Y1437368D01*
X1937502Y1432368D01*
X1937502Y1432368D02*
G37*
G36*
X3785000Y1364870D02*
X3815000Y1364870D01*
X3820000Y1359870D01*
X3820000Y1344870D01*
X3815000Y1339870D01*
X3785000Y1339870D01*
X3785000Y1332370D01*
X3737500Y1332370D01*
X3737500Y1247370D01*
X3732500Y1242370D01*
X3717500Y1242370D01*
X3712500Y1247370D01*
X3712500Y1332370D01*
X3687500Y1332370D01*
X3687500Y1247370D01*
X3682500Y1242370D01*
X3667500Y1242370D01*
X3662500Y1247370D01*
X3662500Y1332370D01*
X3637500Y1332370D01*
X3637500Y1247370D01*
X3632500Y1242370D01*
X3617500Y1242370D01*
X3612500Y1247370D01*
X3612500Y1332370D01*
X3587500Y1332370D01*
X3587500Y1247370D01*
X3582500Y1242370D01*
X3567500Y1242370D01*
X3562500Y1247370D01*
X3562500Y1332370D01*
X3515000Y1332370D01*
X3515000Y1339870D01*
X3485000Y1339870D01*
X3480000Y1344870D01*
X3480000Y1359870D01*
X3485000Y1364870D01*
X3515000Y1364870D01*
X3515000Y1372370D01*
X3785000Y1372370D01*
X3785000Y1364870D01*
X3785000Y1364870D02*
G37*
G36*
X2935000Y1359870D02*
X2965000Y1359870D01*
X2970000Y1354870D01*
X2970000Y1339870D01*
X2965000Y1334870D01*
X2935000Y1334870D01*
X2935000Y1327370D01*
X2887500Y1327370D01*
X2887500Y1242370D01*
X2882500Y1237370D01*
X2867500Y1237370D01*
X2862500Y1242370D01*
X2862500Y1327370D01*
X2837500Y1327370D01*
X2837500Y1242370D01*
X2832500Y1237370D01*
X2817500Y1237370D01*
X2812500Y1242370D01*
X2812500Y1327370D01*
X2787500Y1327370D01*
X2787500Y1242370D01*
X2782500Y1237370D01*
X2767500Y1237370D01*
X2762500Y1242370D01*
X2762500Y1327370D01*
X2737500Y1327370D01*
X2737500Y1242370D01*
X2732500Y1237370D01*
X2717500Y1237370D01*
X2712500Y1242370D01*
X2712500Y1327370D01*
X2665000Y1327370D01*
X2665000Y1334870D01*
X2635000Y1334870D01*
X2630000Y1339870D01*
X2630000Y1354870D01*
X2635000Y1359870D01*
X2665000Y1359870D01*
X2665000Y1367370D01*
X2935000Y1367370D01*
X2935000Y1359870D01*
X2935000Y1359870D02*
G37*
G36*
X2085000Y1359870D02*
X2115000Y1359870D01*
X2120000Y1354870D01*
X2120000Y1339870D01*
X2115000Y1334870D01*
X2085000Y1334870D01*
X2085000Y1327370D01*
X2037500Y1327370D01*
X2037500Y1242370D01*
X2032500Y1237370D01*
X2017500Y1237370D01*
X2012500Y1242370D01*
X2012500Y1327370D01*
X1987500Y1327370D01*
X1987500Y1242370D01*
X1982500Y1237370D01*
X1967500Y1237370D01*
X1962500Y1242370D01*
X1962500Y1327370D01*
X1937500Y1327370D01*
X1937500Y1242370D01*
X1932500Y1237370D01*
X1917500Y1237370D01*
X1912500Y1242370D01*
X1912500Y1327370D01*
X1887500Y1327370D01*
X1887500Y1242370D01*
X1882500Y1237370D01*
X1867500Y1237370D01*
X1862500Y1242370D01*
X1862500Y1327370D01*
X1815000Y1327370D01*
X1815000Y1334870D01*
X1785000Y1334870D01*
X1780000Y1339870D01*
X1780000Y1354870D01*
X1785000Y1359870D01*
X1815000Y1359870D01*
X1815000Y1367370D01*
X2085000Y1367370D01*
X2085000Y1359870D01*
X2085000Y1359870D02*
G37*
D14*
X2879625Y4744860D02*
D03*
X2879625Y4554860D02*
D03*
X2609115Y4554860D02*
D03*
X2609115Y4649860D02*
D03*
X2609115Y4744860D02*
D03*
D16*
X2389660Y3664860D02*
D03*
X2389660Y3744860D02*
D03*
X2389660Y3824860D02*
D03*
X2389660Y3904860D02*
D03*
X2389660Y3984860D02*
D03*
X2389660Y4064860D02*
D03*
X2389660Y4144860D02*
D03*
X3244370Y4064860D02*
D03*
X3244370Y3904860D02*
D03*
X3244370Y3824860D02*
D03*
X3244370Y3744860D02*
D03*
X3244370Y3664860D02*
D03*
X3244370Y3584860D02*
D03*
X2389660Y3584860D02*
D03*
X3244370Y4144860D02*
D03*
X3244370Y3984860D02*
D03*
D17*
X2537015Y4292215D02*
D03*
X2617015Y4292215D02*
D03*
X2697015Y4292215D02*
D03*
X2777015Y4292215D02*
D03*
X2857015Y4292215D02*
D03*
X2937015Y4292215D02*
D03*
X3017015Y4292215D02*
D03*
X3097015Y4292215D02*
D03*
X3097015Y3437505D02*
D03*
X3017015Y3437505D02*
D03*
X2937015Y3437505D02*
D03*
X2857015Y3437505D02*
D03*
X2777015Y3437505D02*
D03*
X2697015Y3437505D02*
D03*
X2617015Y3437505D02*
D03*
X2537015Y3437505D02*
D03*
D28*
X3694500Y2377525D02*
D03*
X3567500Y2377525D02*
D03*
X3440500Y2377525D02*
D03*
X3313500Y2377525D02*
D03*
X3186500Y2377525D02*
D03*
X3059500Y2377525D02*
D03*
X2932500Y2377525D02*
D03*
X2805500Y2377525D02*
D03*
X2932500Y2922475D02*
D03*
X3059500Y2922475D02*
D03*
X3186500Y2922475D02*
D03*
X3313500Y2922475D02*
D03*
X3440500Y2922475D02*
D03*
X3694500Y2922475D02*
D03*
X3567500Y2922475D02*
D03*
X2805500Y2922475D02*
D03*
X2544500Y2377525D02*
D03*
X2417500Y2377525D02*
D03*
X2290500Y2377525D02*
D03*
X2163500Y2377525D02*
D03*
X2036500Y2377525D02*
D03*
X1909500Y2377525D02*
D03*
X1782500Y2377525D02*
D03*
X1655500Y2377525D02*
D03*
X1782500Y2922475D02*
D03*
X1909500Y2922475D02*
D03*
X2036500Y2922475D02*
D03*
X2163500Y2922475D02*
D03*
X2290500Y2922475D02*
D03*
X2544500Y2922475D02*
D03*
X1655500Y2922475D02*
D03*
X2417500Y2922475D02*
D03*
D59*
X3402470Y4300000D02*
D03*
X3247530Y4300000D02*
D03*
X3522530Y2200000D02*
D03*
X3677470Y2200000D02*
D03*
X3727470Y3100000D02*
D03*
X3572530Y3100000D02*
D03*
X2866900Y4924860D02*
D03*
X3021840Y4924860D02*
D03*
X2954940Y3250000D02*
D03*
X2800000Y3250000D02*
D03*
X2422530Y3100000D02*
D03*
X2577470Y3100000D02*
D03*
X3577470Y4050000D02*
D03*
X3422530Y4050000D02*
D03*
X2527470Y2200000D02*
D03*
X2372530Y2200000D02*
D03*
X4627470Y4900000D02*
D03*
X4472530Y4900000D02*
D03*
X3677470Y4900000D02*
D03*
X3522530Y4900000D02*
D03*
X1977470Y4900000D02*
D03*
X1822530Y4900000D02*
D03*
X2352470Y3450000D02*
D03*
X2197530Y3450000D02*
D03*
D60*
X2077470Y3650000D02*
D03*
X1922530Y3650000D02*
D03*
D61*
X2725000Y1964970D02*
D03*
X2725000Y1810030D02*
D03*
X2875000Y1964840D02*
D03*
X2875000Y1809900D02*
D03*
X3725000Y1964840D02*
D03*
X3725000Y1809900D02*
D03*
X3575000Y1964840D02*
D03*
X3575000Y1809900D02*
D03*
X2025000Y1809900D02*
D03*
X2025000Y1964840D02*
D03*
X1875000Y1809900D02*
D03*
X1875000Y1964840D02*
D03*
D62*
X2475000Y1687630D02*
D03*
X2475000Y1512370D02*
D03*
X3100000Y1512370D02*
D03*
X3100000Y1687630D02*
D03*
X3325000Y1687630D02*
D03*
X3325000Y1512370D02*
D03*
X3950000Y1687630D02*
D03*
X3950000Y1512370D02*
D03*
X2250000Y1512370D02*
D03*
X2250000Y1687630D02*
D03*
X1625000Y1512370D02*
D03*
X1625000Y1687630D02*
D03*
D63*
X4423000Y1821000D02*
D03*
X4550000Y2075000D02*
D03*
X4677000Y1821000D02*
D03*
X4804000Y2075000D02*
D03*
X4527000Y5096000D02*
D03*
X4400000Y5350000D02*
D03*
X4273000Y5096000D02*
D03*
X4654000Y5350000D02*
D03*
X3754000Y5350000D02*
D03*
X3627000Y5096000D02*
D03*
X3500000Y5350000D02*
D03*
X3373000Y5096000D02*
D03*
X2004000Y5350000D02*
D03*
X1877000Y5096000D02*
D03*
X1750000Y5350000D02*
D03*
X1623000Y5096000D02*
D03*
D64*
X4283000Y2001000D02*
D03*
X4794000Y5170000D02*
D03*
X3894000Y5170000D02*
D03*
X2144000Y5170000D02*
D03*
D65*
X2379370Y5367360D02*
D03*
X3039370Y5367360D02*
D03*
D66*
X1100000Y5250000D02*
D03*
X1100000Y1000000D02*
D03*
X5200000Y5250000D02*
D03*
D70*
X3029370Y5122360D02*
D03*
X2389370Y5122360D02*
D03*
D71*
X2839370Y5099860D02*
D03*
X2774370Y5099860D02*
D03*
X2709370Y5099860D02*
D03*
X2644370Y5099860D02*
D03*
X2579370Y5099860D02*
D03*
D72*
X2589370Y5367360D02*
D03*
X2829370Y5367360D02*
D03*
D73*
X4750000Y950000D02*
D03*
X4350000Y950000D02*
D03*
X3450000Y950000D02*
D03*
X3850000Y950000D02*
D03*
X5200000Y1425000D02*
D03*
X5200000Y950000D02*
D03*
X2150000Y950000D02*
D03*
X3000000Y950000D02*
D03*
D74*
X2053500Y4100000D02*
D03*
X1646500Y3973000D02*
D03*
X2053500Y3973000D02*
D03*
X2053500Y3846000D02*
D03*
X1646500Y4354000D02*
D03*
X2053500Y4354000D02*
D03*
X2053500Y4227000D02*
D03*
X1646500Y4227000D02*
D03*
X1646500Y3846000D02*
D03*
X1646500Y4100000D02*
D03*
D75*
X1625000Y3650000D02*
D03*
X1775000Y3650000D02*
D03*
X3575000Y4300000D02*
D03*
X3725000Y4300000D02*
D03*
D76*
X3200000Y4667470D02*
D03*
X3200000Y4512530D02*
D03*
X3700000Y4497530D02*
D03*
X3700000Y4652470D02*
D03*
D77*
X3540000Y4722621D02*
D03*
X3445000Y4722621D02*
D03*
X3350000Y4722621D02*
D03*
X3350000Y4472621D02*
D03*
X3540000Y4472621D02*
D03*
D78*
X1750000Y950000D02*
D03*
X2600000Y950000D02*
D03*
%TF.MD5,2f45810b023697ac5e570b697f4dec35*%
M02*
