%TF.GenerationSoftware,Altium Limited,Altium Designer,22.9.1 (49)*%
G04 Layer_Physical_Order=1*
G04 Layer_Color=255*
%FSLAX45Y45*%
%MOMM*%
%TF.SameCoordinates,CD82FF21-FF23-4195-95DD-DD0BBBA1307D*%
%TF.FilePolarity,Positive*%
%TF.FileFunction,Copper,L1,Top,Signal*%
%TF.Part,Single*%
G01*
G75*
%TA.AperFunction,ConnectorPad*%
%ADD10R,1.60000X1.40000*%
%ADD11R,0.40000X1.35000*%
%TA.AperFunction,SMDPad,CuDef*%
%ADD12R,1.90000X1.90000*%
%ADD13R,3.00000X3.00000*%
%ADD14R,1.00330X0.50800*%
%ADD15R,0.86360X0.88900*%
%ADD16R,1.35890X0.50080*%
%ADD17R,0.50080X1.35890*%
%TA.AperFunction,SMDPad,SMDef*%
%ADD18R,0.60000X0.25000*%
%ADD19R,3.50000X0.50000*%
%ADD20R,1.67500X0.50000*%
%ADD21R,3.50000X1.40000*%
%ADD22R,0.25000X0.60000*%
%TA.AperFunction,SMDPad,CuDef*%
%ADD23R,0.81280X0.76200*%
%ADD24R,1.34620X1.06680*%
%ADD25R,2.79000X0.74000*%
%ADD26R,0.80000X0.80000*%
%ADD27R,0.76200X0.81280*%
%ADD28R,0.53340X1.46170*%
%ADD29R,0.88900X0.86360*%
%ADD30R,0.60000X1.25000*%
%ADD31R,3.00000X3.00000*%
%TA.AperFunction,Conductor*%
%ADD32C,0.25400*%
%ADD33C,0.50000*%
%ADD34C,0.26000*%
%TA.AperFunction,ComponentPad*%
%ADD35O,0.90000X1.80000*%
%ADD36C,1.30000*%
%TA.AperFunction,ViaPad*%
%ADD37C,1.00000*%
%ADD38C,0.45000*%
%TA.AperFunction,TestPad*%
%ADD39C,0.45000*%
G36*
X1937500Y1392370D02*
X1755000Y1392370D01*
X1755000Y1375000D01*
X1750000Y1375000D01*
X1750000Y1225000D01*
X1755000Y1220833D01*
X1755000Y1212370D01*
X1765156Y1212370D01*
X1900000Y1100000D01*
X1900000Y800000D01*
X1600000Y800000D01*
X1600000Y1100000D01*
X1550000Y1150000D01*
X1550000Y1439030D01*
X1712310Y1439030D01*
X1712310Y1441489D01*
X1937500Y1441489D01*
X1937500Y1392370D01*
X1937500Y1392370D02*
G37*
G36*
X2162690Y1439030D02*
X2337310Y1439030D01*
X2337310Y1439030D01*
X2350000Y1439006D01*
X2350000Y1150000D01*
X2300000Y1100000D01*
X2300000Y800000D01*
X2000000Y800000D01*
X2000000Y1100000D01*
X2134844Y1212370D01*
X2145000Y1212370D01*
X2145000Y1220833D01*
X2150000Y1225000D01*
X2150000Y1375000D01*
X2145000Y1375000D01*
X2145000Y1392370D01*
X1962500Y1392370D01*
X1962500Y1441489D01*
X2162690Y1441489D01*
X2162690Y1439030D01*
X2162690Y1439030D02*
G37*
G36*
X2787500Y1392370D02*
X2605000Y1392370D01*
X2605000Y1371660D01*
X2600000Y1371660D01*
X2600000Y1221660D01*
X2605000Y1217494D01*
X2605000Y1212370D01*
X2611148Y1212370D01*
X2750000Y1096660D01*
X2750000Y796660D01*
X2450000Y796660D01*
X2450000Y1096660D01*
X2400000Y1146660D01*
X2400000Y1439030D01*
X2562310Y1439030D01*
X2562310Y1441489D01*
X2787500Y1441489D01*
X2787500Y1392370D01*
X2787500Y1392370D02*
G37*
G36*
X3012690Y1439030D02*
X3187310Y1439030D01*
X3187310Y1439030D01*
X3200000Y1439006D01*
X3200000Y1146660D01*
X3150000Y1096660D01*
X3150000Y796660D01*
X2850000Y796660D01*
X2850000Y1096660D01*
X2988852Y1212370D01*
X2995000Y1212370D01*
X2995000Y1217494D01*
X3000000Y1221660D01*
X3000000Y1371660D01*
X2995000Y1371660D01*
X2995000Y1392370D01*
X2812500Y1392370D01*
X2812500Y1441489D01*
X3012690Y1441489D01*
X3012690Y1439030D01*
X3012690Y1439030D02*
G37*
G36*
X3637500Y1397370D02*
X3455000Y1397370D01*
X3455000Y1378340D01*
X3450000Y1378340D01*
X3450000Y1228340D01*
X3455000Y1224173D01*
X3455000Y1217370D01*
X3463164Y1217370D01*
X3600000Y1103340D01*
X3600000Y803340D01*
X3300000Y803340D01*
X3300000Y1103340D01*
X3250000Y1153340D01*
X3250000Y1439030D01*
X3412310Y1439030D01*
X3412310Y1446489D01*
X3637500Y1446489D01*
X3637500Y1397370D01*
X3637500Y1397370D02*
G37*
G36*
X3862690Y1439030D02*
X4037310Y1439030D01*
X4037310Y1439030D01*
X4050000Y1439006D01*
X4050000Y1153340D01*
X4000000Y1103340D01*
X4000000Y803340D01*
X3700000Y803340D01*
X3700000Y1103340D01*
X3836837Y1217370D01*
X3845000Y1217370D01*
X3845000Y1224173D01*
X3850000Y1228340D01*
X3850000Y1378340D01*
X3845000Y1378340D01*
X3845000Y1397370D01*
X3662500Y1397370D01*
X3662500Y1446489D01*
X3862690Y1446489D01*
X3862690Y1439030D01*
X3862690Y1439030D02*
G37*
D10*
X3029370Y5122360D02*
D03*
X2389370Y5122360D02*
D03*
D11*
X2839370Y5099860D02*
D03*
X2774370Y5099860D02*
D03*
X2709370Y5099860D02*
D03*
X2644370Y5099860D02*
D03*
X2579370Y5099860D02*
D03*
D12*
X2589370Y5367360D02*
D03*
X2829370Y5367360D02*
D03*
D13*
X4750000Y950000D02*
D03*
X4350000Y950000D02*
D03*
X3450000Y950000D02*
D03*
X3850000Y950000D02*
D03*
X5200000Y1350000D02*
D03*
X5200000Y950000D02*
D03*
X2150000Y950000D02*
D03*
X3000000Y950000D02*
D03*
D14*
X2879625Y4744860D02*
D03*
X2879625Y4554860D02*
D03*
X2609115Y4554860D02*
D03*
X2609115Y4649860D02*
D03*
X2609115Y4744860D02*
D03*
D15*
X3402470Y4300000D02*
D03*
X3247530Y4300000D02*
D03*
X3522530Y2200000D02*
D03*
X3677470Y2200000D02*
D03*
X3727470Y3100000D02*
D03*
X3572530Y3100000D02*
D03*
X2866900Y4924860D02*
D03*
X3021840Y4924860D02*
D03*
X2954940Y3250000D02*
D03*
X2800000Y3250000D02*
D03*
X2422530Y3100000D02*
D03*
X2577470Y3100000D02*
D03*
X3577470Y4050000D02*
D03*
X3422530Y4050000D02*
D03*
X2527470Y2200000D02*
D03*
X2372530Y2200000D02*
D03*
X4627470Y4900000D02*
D03*
X4472530Y4900000D02*
D03*
X3727470Y4900000D02*
D03*
X3572530Y4900000D02*
D03*
X1977470Y4900000D02*
D03*
X1822530Y4900000D02*
D03*
X2352470Y3450000D02*
D03*
X2197530Y3450000D02*
D03*
D16*
X2389660Y3664860D02*
D03*
X2389660Y3744860D02*
D03*
X2389660Y3824860D02*
D03*
X2389660Y3904860D02*
D03*
X2389660Y3984860D02*
D03*
X2389660Y4064860D02*
D03*
X2389660Y4144860D02*
D03*
X3244370Y4064860D02*
D03*
X3244370Y3904860D02*
D03*
X3244370Y3824860D02*
D03*
X3244370Y3744860D02*
D03*
X3244370Y3664860D02*
D03*
X3244370Y3584860D02*
D03*
X2389660Y3584860D02*
D03*
X3244370Y4144860D02*
D03*
X3244370Y3984860D02*
D03*
D17*
X2537015Y4292215D02*
D03*
X2617015Y4292215D02*
D03*
X2697015Y4292215D02*
D03*
X2777015Y4292215D02*
D03*
X2857015Y4292215D02*
D03*
X2937015Y4292215D02*
D03*
X3017015Y4292215D02*
D03*
X3097015Y4292215D02*
D03*
X3097015Y3437505D02*
D03*
X3017015Y3437505D02*
D03*
X2937015Y3437505D02*
D03*
X2857015Y3437505D02*
D03*
X2777015Y3437505D02*
D03*
X2697015Y3437505D02*
D03*
X2617015Y3437505D02*
D03*
X2537015Y3437505D02*
D03*
D18*
X1810000Y1644870D02*
D03*
X1810000Y1594870D02*
D03*
X1810000Y1544870D02*
D03*
X2090000Y1544870D02*
D03*
X2090000Y1594870D02*
D03*
X2090000Y1644870D02*
D03*
X2660000Y1644870D02*
D03*
X2660000Y1594870D02*
D03*
X2660000Y1544870D02*
D03*
X2940000Y1544870D02*
D03*
X2940000Y1594870D02*
D03*
X2940000Y1644870D02*
D03*
X3510000Y1649870D02*
D03*
X3510000Y1599870D02*
D03*
X3510000Y1549870D02*
D03*
X3790000Y1549870D02*
D03*
X3790000Y1599870D02*
D03*
X3790000Y1649870D02*
D03*
D19*
X1950000Y1487370D02*
D03*
X2800000Y1487370D02*
D03*
X3650000Y1492370D02*
D03*
D20*
X1858750Y1417370D02*
D03*
X2041250Y1417370D02*
D03*
X2708750Y1417370D02*
D03*
X2891250Y1417370D02*
D03*
X3558750Y1422370D02*
D03*
X3741250Y1422370D02*
D03*
D21*
X1950000Y1302370D02*
D03*
X2800000Y1302370D02*
D03*
X3650000Y1307370D02*
D03*
D22*
X2025000Y1697370D02*
D03*
X1975000Y1697370D02*
D03*
X1925000Y1697370D02*
D03*
X1875000Y1697370D02*
D03*
X2875000Y1697370D02*
D03*
X2825000Y1697370D02*
D03*
X2775000Y1697370D02*
D03*
X2725000Y1697370D02*
D03*
X3725000Y1702370D02*
D03*
X3675000Y1702370D02*
D03*
X3625000Y1702370D02*
D03*
X3575000Y1702370D02*
D03*
D23*
X2725000Y1964970D02*
D03*
X2725000Y1810030D02*
D03*
X2875000Y1964840D02*
D03*
X2875000Y1809900D02*
D03*
X3725000Y1964840D02*
D03*
X3725000Y1809900D02*
D03*
X3575000Y1964840D02*
D03*
X3575000Y1809900D02*
D03*
X2025000Y1809900D02*
D03*
X2025000Y1964840D02*
D03*
X1875000Y1809900D02*
D03*
X1875000Y1964840D02*
D03*
D24*
X2475000Y1687630D02*
D03*
X2475000Y1512370D02*
D03*
X3100000Y1512370D02*
D03*
X3100000Y1687630D02*
D03*
X3325000Y1687630D02*
D03*
X3325000Y1512370D02*
D03*
X3950000Y1687630D02*
D03*
X3950000Y1512370D02*
D03*
X2250000Y1512370D02*
D03*
X2250000Y1687630D02*
D03*
X1625000Y1512370D02*
D03*
X1625000Y1687630D02*
D03*
D25*
X2053500Y4100000D02*
D03*
X1646500Y3973000D02*
D03*
X2053500Y3973000D02*
D03*
X2053500Y3846000D02*
D03*
X1646500Y4354000D02*
D03*
X2053500Y4354000D02*
D03*
X2053500Y4227000D02*
D03*
X1646500Y4227000D02*
D03*
X1646500Y3846000D02*
D03*
X1646500Y4100000D02*
D03*
D26*
X1625000Y3650000D02*
D03*
X1775000Y3650000D02*
D03*
X3575000Y4300000D02*
D03*
X3725000Y4300000D02*
D03*
D27*
X2077470Y3650000D02*
D03*
X1922530Y3650000D02*
D03*
D28*
X3694500Y2377525D02*
D03*
X3567500Y2377525D02*
D03*
X3440500Y2377525D02*
D03*
X3313500Y2377525D02*
D03*
X3186500Y2377525D02*
D03*
X3059500Y2377525D02*
D03*
X2932500Y2377525D02*
D03*
X2805500Y2377525D02*
D03*
X2932500Y2922475D02*
D03*
X3059500Y2922475D02*
D03*
X3186500Y2922475D02*
D03*
X3313500Y2922475D02*
D03*
X3440500Y2922475D02*
D03*
X3694500Y2922475D02*
D03*
X3567500Y2922475D02*
D03*
X2805500Y2922475D02*
D03*
X2544500Y2377525D02*
D03*
X2417500Y2377525D02*
D03*
X2290500Y2377525D02*
D03*
X2163500Y2377525D02*
D03*
X2036500Y2377525D02*
D03*
X1909500Y2377525D02*
D03*
X1782500Y2377525D02*
D03*
X1655500Y2377525D02*
D03*
X1782500Y2922475D02*
D03*
X1909500Y2922475D02*
D03*
X2036500Y2922475D02*
D03*
X2163500Y2922475D02*
D03*
X2290500Y2922475D02*
D03*
X2544500Y2922475D02*
D03*
X1655500Y2922475D02*
D03*
X2417500Y2922475D02*
D03*
D29*
X3200000Y4667470D02*
D03*
X3200000Y4512530D02*
D03*
X3700000Y4497530D02*
D03*
X3700000Y4652470D02*
D03*
D30*
X3540000Y4722621D02*
D03*
X3445000Y4722621D02*
D03*
X3350000Y4722621D02*
D03*
X3350000Y4472621D02*
D03*
X3540000Y4472621D02*
D03*
D31*
X1750000Y950000D02*
D03*
X2600000Y950000D02*
D03*
D32*
X3610000Y1612196D02*
X3610000Y1617500D01*
X3690000Y1612196D02*
X3690000Y1617500D01*
X3711711Y1570259D02*
X3711711Y1590485D01*
X3711711Y1570259D02*
X3727300Y1554670D01*
X3579549Y1581745D02*
X3610000Y1612196D01*
X3690000Y1612196D02*
X3711711Y1590485D01*
X3579549Y1569549D02*
X3579549Y1581745D01*
X2340391Y3151736D02*
X2372706Y3184050D01*
X2340391Y3018781D02*
X2340391Y3151736D01*
X2290500Y2968890D02*
X2340391Y3018781D01*
X2290500Y2922475D02*
X2290500Y2968890D01*
X3350000Y4690121D02*
X3382300Y4657821D01*
X3401456Y4627421D02*
X3488545Y4627421D01*
X3522700Y4661577D02*
X3522700Y4705321D01*
X3350000Y4690121D02*
X3350000Y4722621D01*
X3382300Y4646576D02*
X3382300Y4657821D01*
X3382300Y4646576D02*
X3401456Y4627421D01*
X3488545Y4627421D02*
X3522700Y4661577D01*
X3522700Y4705321D02*
X3540000Y4722621D01*
X2114913Y3385087D02*
X2250000Y3250000D01*
X2800000Y3250000D01*
X2537015Y3437505D02*
X2537015Y3437660D01*
X2537015Y3318289D02*
X2537015Y3437505D01*
X3694500Y2968890D02*
X3727470Y3001860D01*
X3694500Y2922475D02*
X3694500Y2968890D01*
X3727470Y3001860D02*
X3727470Y3100000D01*
X2544500Y2968890D02*
X2577470Y3001860D01*
X2577470Y3100000D01*
X2544500Y2922475D02*
X2544500Y2968890D01*
X3539622Y1554670D02*
X3564670Y1554670D01*
X3579549Y1569549D01*
X3727300Y1554670D02*
X3760519Y1554670D01*
X2194800Y1922094D02*
X2350010Y1766884D01*
X2145200Y1682970D02*
X2145200Y1969625D01*
X1909500Y2262435D02*
X2048603Y2123333D01*
X2064825Y2050000D02*
X2145200Y1969625D01*
X2000000Y2050000D02*
X2064825Y2050000D01*
X2055697Y2123333D02*
X2194800Y1984230D01*
X2048603Y2123333D02*
X2055697Y2123333D01*
X2194800Y1922094D02*
X2194800Y1984230D01*
X1889549Y1576745D02*
X1925000Y1612196D01*
X2013750Y1582375D02*
X2013750Y1613750D01*
X2010000Y1617500D02*
X2013750Y1613750D01*
X1889549Y1564549D02*
X1889549Y1576745D01*
X1925000Y1612196D02*
X1925000Y1617500D01*
X2746250Y1592375D02*
X2746250Y1613750D01*
X2750000Y1617500D01*
X2698945Y1545070D02*
X2746250Y1592375D01*
X3299530Y2982860D02*
X3313500Y2968890D01*
X3270000Y2997739D02*
X3284879Y2982860D01*
X3020200Y3669800D02*
X3270000Y3420000D01*
X3313500Y2922475D02*
X3313500Y2968890D01*
X3284879Y2982860D02*
X3299530Y2982860D01*
X3270000Y2997739D02*
X3270000Y3420000D01*
X2372706Y3184050D02*
X2691546Y3184050D01*
X2163905Y2922880D02*
X2163905Y3199595D01*
X2163500Y2922475D02*
X2163905Y2922880D01*
X2163905Y3199595D02*
X2164310Y3200000D01*
X1909500Y3289500D02*
X1990000Y3370000D01*
X1909500Y2922475D02*
X1909500Y3289500D01*
X1621500Y5094500D02*
X1623000Y5096000D01*
X2038250Y3078250D02*
X2040000Y3080000D01*
X2036500Y2922475D02*
X2038250Y2924225D01*
X2038250Y3078250D01*
X3426234Y4377150D02*
X3459195Y4377150D01*
X3298410Y4377150D02*
X3426234Y4377150D01*
X3426234Y4410111D02*
X3451213Y4435089D01*
X3426234Y4377150D02*
X3426234Y4410111D01*
X3478350Y4242005D02*
X3478350Y4357995D01*
X3453010Y4150000D02*
X3453010Y4216666D01*
X3459195Y4377150D02*
X3478350Y4357995D01*
X3453010Y4216666D02*
X3478350Y4242005D01*
X2114913Y3385087D02*
X2114913Y3562458D01*
X2114913Y3737542D02*
X2148270Y3704185D01*
X2114913Y3562458D02*
X2148270Y3595816D01*
X2148270Y3704185D01*
X2328750Y3671250D02*
X2383270Y3671250D01*
X2389660Y3664860D01*
X2325000Y3675000D02*
X2328750Y3671250D01*
X2697015Y3437505D02*
X2700000Y3434520D01*
X2700000Y3375000D02*
X2700000Y3434520D01*
X2617015Y3437505D02*
X2625000Y3429519D01*
X2625000Y3375000D02*
X2625000Y3429519D01*
X1857500Y1697370D02*
X1875000Y1697370D01*
X1925000Y1697370D02*
X1925000Y1762440D01*
X1877540Y1809900D02*
X1925000Y1762440D01*
X2025000Y1697370D02*
X2042500Y1697370D01*
X2524675Y4236970D02*
X2537015Y4249310D01*
X2226227Y3849063D02*
X2226227Y4145923D01*
X2223935Y4227000D02*
X2233905Y4236970D01*
X2226227Y4145923D02*
X2250000Y4169696D01*
X2250000Y4175000D01*
X2233905Y4236970D02*
X2524675Y4236970D01*
X2053500Y4227000D02*
X2223935Y4227000D01*
X3550000Y4325000D02*
X3575000Y4300000D01*
X3540245Y1719670D02*
X3574800Y1719670D01*
X3440830Y1678860D02*
X3444580Y1675110D01*
X3444580Y1626546D02*
X3471056Y1600070D01*
X3495610Y1764305D02*
X3540245Y1719670D01*
X3471056Y1600070D02*
X3492700Y1600070D01*
X3444580Y1626546D02*
X3444580Y1675110D01*
X3725000Y1702370D02*
X3742500Y1702370D01*
X3742500Y1702370D01*
X2875000Y1697370D02*
X2892500Y1697370D01*
X2707500Y1697370D02*
X2725000Y1697370D01*
X2597300Y1678873D02*
X2604475Y1686048D01*
X2597300Y1618826D02*
X2597300Y1678873D01*
X2597300Y1618826D02*
X2621056Y1595070D01*
X2659800Y1595070D01*
X2604475Y1686048D02*
X2604475Y1691352D01*
X2659800Y1595070D02*
X2660000Y1594870D01*
X1754475Y1686048D02*
X1754475Y1691352D01*
X1747300Y1618826D02*
X1747300Y1678873D01*
X1747300Y1618826D02*
X1771056Y1595070D01*
X1809800Y1595070D01*
X1747300Y1678873D02*
X1754475Y1686048D01*
X1809800Y1595070D02*
X1810000Y1594870D01*
X2051055Y1545070D02*
X2072700Y1545070D01*
X2013750Y1582375D02*
X2051055Y1545070D01*
X1874670Y1549670D02*
X1889549Y1564549D01*
X2677300Y1545070D02*
X2698945Y1545070D01*
X3807100Y1649870D02*
X3830200Y1672970D01*
X3765845Y1894040D02*
X3830200Y1829685D01*
X3830200Y1672970D02*
X3830200Y1829685D01*
X4029134Y1599870D02*
X4050010Y1620746D01*
X4050010Y1633115D01*
X4050010Y1633115D01*
X3790000Y1599870D02*
X4029134Y1599870D01*
X2940200Y1595070D02*
X2965022Y1595070D01*
X2940000Y1594870D02*
X2940200Y1595070D01*
X2965022Y1595070D02*
X2968362Y1598410D01*
X3177674Y1598410D01*
X3200009Y1620745D01*
X3200009Y1849991D01*
X2335131Y1598410D02*
X2350010Y1613289D01*
X2090000Y1594870D02*
X2165606Y1594870D01*
X2350010Y1613289D02*
X2350010Y1766884D01*
X2169146Y1598410D02*
X2335131Y1598410D01*
X2165606Y1594870D02*
X2169146Y1598410D01*
X1831900Y1549670D02*
X1874670Y1549670D01*
X1827300Y1545070D02*
X1831900Y1549670D01*
X2850000Y1619696D02*
X2850000Y1625000D01*
X2877300Y1568825D02*
X2877300Y1592396D01*
X2877300Y1568825D02*
X2896455Y1549670D01*
X2850000Y1619696D02*
X2877300Y1592396D01*
X2896455Y1549670D02*
X2918100Y1549670D01*
X2922700Y1545070D01*
X3495610Y1764305D02*
X3495610Y1779380D01*
X3574800Y1719670D02*
X3575000Y1719471D01*
X3491860Y1783130D02*
X3495610Y1779380D01*
X3577540Y1809900D02*
X3625000Y1762440D01*
X3575000Y1702370D02*
X3575000Y1719471D01*
X3625000Y1702370D02*
X3625000Y1762440D01*
X2929184Y1880700D02*
X2980200Y1829684D01*
X2980200Y1667970D02*
X2980200Y1829684D01*
X2957100Y1644870D02*
X2980200Y1667970D01*
X2968830Y2081170D02*
X3200009Y1849991D01*
X2296895Y2081170D02*
X2968830Y2081170D01*
X2800000Y2136370D02*
X2803750Y2132620D01*
X2817610Y2132620D01*
X2817869Y2132360D02*
X3059500Y2132360D01*
X2817610Y2132620D02*
X2817869Y2132360D01*
X3059500Y2132360D02*
X3059500Y2377525D01*
X2090000Y1644870D02*
X2107100Y1644870D01*
X2145200Y1682970D01*
X3864360Y2035640D02*
X4050010Y1849990D01*
X4050010Y1633115D02*
X4050010Y1849990D01*
X3488810Y2035640D02*
X3864360Y2035640D01*
X3405960Y1894040D02*
X3765845Y1894040D01*
X3186500Y2113500D02*
X3186500Y2377525D01*
X3186500Y2113500D02*
X3405960Y1894040D01*
X2586945Y1880830D02*
X2779184Y1880830D01*
X2432005Y2035770D02*
X2586945Y1880830D01*
X2269534Y2035770D02*
X2432005Y2035770D01*
X2779314Y1880700D02*
X2929184Y1880700D01*
X2779184Y1880830D02*
X2779314Y1880700D01*
X3206945Y1993055D02*
X3350000Y1850000D01*
X3198805Y1993055D02*
X3206945Y1993055D01*
X3059500Y2132360D02*
X3198805Y1993055D01*
X2163500Y2214565D02*
X2296895Y2081170D01*
X2255304Y2050000D02*
X2269534Y2035770D01*
X2250000Y2050000D02*
X2255304Y2050000D01*
X2000000Y2250000D02*
X2000000Y2255304D01*
X2022530Y2277834D01*
X2022530Y2363555D01*
X2036500Y2377525D01*
X1909500Y2262435D02*
X1909500Y2377525D01*
X2163500Y2214565D02*
X2163500Y2377525D01*
X2250000Y2250000D02*
X2253750Y2253750D01*
X2271146Y2253750D01*
X2290500Y2273104D01*
X2290500Y2377525D01*
X2940000Y1644870D02*
X2957100Y1644870D01*
X2727540Y1810030D02*
X2775000Y1762570D01*
X2775000Y1697370D02*
X2775000Y1762570D01*
X2825000Y1762440D02*
X2872460Y1809900D01*
X2825000Y1697370D02*
X2825000Y1762440D01*
X3790000Y1649870D02*
X3807100Y1649870D01*
X3393692Y2130758D02*
X3488810Y2035640D01*
X3313500Y2331110D02*
X3393692Y2250918D01*
X3313500Y2331110D02*
X3313500Y2377525D01*
X3393692Y2130758D02*
X3393692Y2250918D01*
X1875000Y1809900D02*
X1877540Y1809900D01*
X2022460Y1809900D02*
X2025000Y1809900D01*
X1975000Y1697370D02*
X1975000Y1762440D01*
X2022460Y1809900D01*
X3722460Y1809900D02*
X3725000Y1809900D01*
X3675000Y1702370D02*
X3675000Y1762440D01*
X3722460Y1809900D01*
X3575000Y1809900D02*
X3577540Y1809900D01*
X2872460Y1809900D02*
X2875000Y1809900D01*
X2725000Y1810030D02*
X2727540Y1810030D01*
X3478720Y2109935D02*
X4588760Y2109935D01*
X3440500Y2148155D02*
X3478720Y2109935D01*
X4644695Y2054000D02*
X4673000Y2054000D01*
X3440500Y2148155D02*
X3440500Y2377525D01*
X4588760Y2109935D02*
X4644695Y2054000D01*
X3652630Y3747430D02*
X3655200Y3750000D01*
X3649896Y3600000D02*
X3655200Y3600000D01*
X3246940Y3747430D02*
X3652630Y3747430D01*
X3244370Y3584860D02*
X3634756Y3584860D01*
X3649896Y3600000D01*
X3244370Y3744860D02*
X3246940Y3747430D01*
X3971708Y4798666D02*
X4073042Y4900000D01*
X3602700Y4798666D02*
X3971708Y4798666D01*
X3453010Y4150000D02*
X3720060Y4150000D01*
X3725000Y4145060D01*
X3373000Y5096000D02*
X3377820Y5091180D01*
X2965000Y3657716D02*
X2965000Y3800000D01*
X2937015Y3629731D02*
X2965000Y3657716D01*
X2937015Y3437505D02*
X2937015Y3629731D01*
X3017015Y3954977D02*
X3020200Y3951792D01*
X3017015Y3954977D02*
X3017015Y4292215D01*
X3020200Y3669800D02*
X3020200Y3951792D01*
X2556785Y3568183D02*
X2937015Y3948413D01*
X2937015Y4292215D01*
X2857015Y3757015D02*
X2900000Y3800000D01*
X2857015Y3437505D02*
X2857015Y3757015D01*
X2467480Y4132520D02*
X2700000Y3900000D01*
X2857015Y3956910D02*
X2857015Y4292215D01*
X2402000Y4132520D02*
X2467480Y4132520D01*
X2500105Y3600000D02*
X2857015Y3956910D01*
X3446250Y3196250D02*
X3450000Y3200000D01*
X3446250Y2928225D02*
X3446250Y3196250D01*
X3440500Y2922475D02*
X3446250Y2928225D01*
X2389660Y4144860D02*
X2402000Y4132520D01*
X3150000Y3150000D02*
X3150000Y3367381D01*
X3109355Y3382260D02*
X3135121Y3382260D01*
X3150000Y3367381D01*
X3097015Y3394600D02*
X3109355Y3382260D01*
X3097015Y3394600D02*
X3097015Y3437505D01*
X3150000Y3150000D02*
X3200000Y3100000D01*
X3059500Y2922475D02*
X3059500Y3279314D01*
X3017015Y3321800D02*
X3059500Y3279314D01*
X3017015Y3321800D02*
X3017015Y3437505D01*
X3200000Y2935975D02*
X3200000Y3100000D01*
X3186500Y2922475D02*
X3200000Y2935975D01*
X2377470Y3450000D02*
X2524675Y3450000D01*
X2537015Y3437660D01*
X2377470Y3450000D02*
X2377470Y3451270D01*
X1775000Y3650000D02*
X1922530Y3650000D01*
X2281427Y3873863D02*
X2281427Y4103432D01*
X2281427Y3873863D02*
X2318090Y3837200D01*
X2377320Y3837200D01*
X2389660Y3824860D01*
X2226227Y3849063D02*
X2318090Y3757200D01*
X2537015Y4249310D02*
X2537015Y4292215D01*
X2377320Y3757200D02*
X2389660Y3744860D01*
X2318090Y3757200D02*
X2377320Y3757200D01*
X2604675Y4304555D02*
X2617015Y4292215D01*
X2053500Y4354000D02*
X2358520Y4354000D01*
X2397380Y4392860D01*
X2575600Y4392860D01*
X2604675Y4363784D01*
X2604675Y4304555D02*
X2604675Y4363784D01*
X2193670Y3635070D02*
X2377470Y3451270D01*
X2193670Y3635070D02*
X2193670Y3765538D01*
X2192708Y3766500D02*
X2193670Y3765538D01*
X1910380Y3766375D02*
X1998486Y3766375D01*
X1836878Y3839877D02*
X1910380Y3766375D01*
X1749000Y4354000D02*
X1836878Y4266122D01*
X1646500Y4354000D02*
X1749000Y4354000D01*
X1836878Y3839877D02*
X1836878Y4266122D01*
X2777015Y3274255D02*
X2777015Y3437505D01*
X2777015Y3272985D02*
X2777015Y3274255D01*
X2777015Y3272985D02*
X2800000Y3250000D01*
X2053500Y3770900D02*
X2086858Y3737542D01*
X2114913Y3737542D01*
X2053500Y3770900D02*
X2053500Y3846000D01*
X1749000Y4354000D02*
X1773300Y4378300D01*
X1773300Y4697740D01*
X1898410Y4822850D01*
X2522850Y4822850D01*
X1822530Y4898730D02*
X1898410Y4822850D01*
X2522850Y4822850D02*
X2600000Y4900000D01*
X4472530Y4900000D02*
X4472530Y5013225D01*
X4527000Y5067695D01*
X4527000Y5096000D01*
X4073042Y4900000D02*
X4472530Y4900000D01*
X1822530Y5013225D02*
X1877000Y5067695D01*
X1877000Y5096000D01*
X1822530Y4900000D02*
X1822530Y5013225D01*
X1822530Y4898730D02*
X1822530Y4900000D01*
X3271164Y4828836D02*
X3572530Y4828836D01*
X3200000Y4900000D02*
X3271164Y4828836D01*
X3070540Y4795660D02*
X3198730Y4667470D01*
X2866900Y4795660D02*
X3070540Y4795660D01*
X3200000Y4667470D02*
X3201270Y4667470D01*
X3198730Y4667470D02*
X3200000Y4667470D01*
X3572530Y4900000D02*
X3572530Y5013225D01*
X3627000Y5067695D01*
X3627000Y5096000D01*
X3572530Y4828836D02*
X3572530Y4900000D01*
X3572530Y4828836D02*
X3602700Y4798666D01*
X3602700Y4593560D02*
X3602700Y4798666D01*
X3602700Y4593560D02*
X3698730Y4497530D01*
X3700000Y4497530D01*
X3453010Y4080480D02*
X3453010Y4150000D01*
X3244370Y4064860D02*
X3407671Y4064860D01*
X3422530Y4050000D01*
X3453010Y4080480D01*
X3350000Y4472621D02*
X3350000Y4482700D01*
X3367300Y4500000D01*
X3450000Y4500000D01*
X3540000Y4452389D02*
X3540000Y4472621D01*
X3522700Y4435089D02*
X3540000Y4452389D01*
X3451213Y4435089D02*
X3522700Y4435089D01*
X3097015Y4292215D02*
X3104800Y4300000D01*
X3222530Y4300000D01*
X3540000Y4472621D02*
X3675091Y4472621D01*
X3700000Y4497530D01*
X3256421Y4722621D02*
X3350000Y4722621D01*
X3201270Y4667470D02*
X3256421Y4722621D01*
X2866900Y4795660D02*
X2866900Y4924860D01*
X2866900Y4757560D02*
X2866900Y4795660D01*
X2866900Y4757560D02*
X2879600Y4744860D01*
X2879625Y4744860D01*
X2839370Y4952390D02*
X2866900Y4924860D01*
X2839370Y4952390D02*
X2839370Y5099860D01*
X3222530Y4301270D02*
X3298410Y4377150D01*
X3222530Y4300000D02*
X3222530Y4301270D01*
D33*
X3345000Y1492370D02*
X3650000Y1492370D01*
X3942370Y1492370D01*
X3950000Y1500000D01*
X3325000Y1512370D02*
X3345000Y1492370D01*
X2800000Y1487370D02*
X3075000Y1487370D01*
X2500000Y1487370D02*
X2800000Y1487370D01*
X2475000Y1512370D02*
X2500000Y1487370D01*
X1950000Y1487370D02*
X2225000Y1487370D01*
X1650000Y1487370D02*
X1950000Y1487370D01*
X1625000Y1512370D02*
X1650000Y1487370D01*
X2525000Y2200000D02*
X2527470Y2200000D01*
X2544500Y2217030D01*
X2544500Y2377525D01*
X3692830Y2215360D02*
X3692830Y2375855D01*
X3694500Y2377525D01*
X3677470Y2200000D02*
X3692830Y2215360D01*
D34*
X2767370Y4632630D02*
X2832740Y4567260D01*
X2842460Y4567260D02*
X2845140Y4564580D01*
X2767370Y4632630D02*
X2767370Y4822164D01*
X2832740Y4567260D02*
X2842460Y4567260D01*
X2667260Y4567260D02*
X2721370Y4621370D01*
X2646280Y4567260D02*
X2667260Y4567260D01*
X2633880Y4554860D02*
X2646280Y4567260D01*
X2721370Y4621370D02*
X2721370Y4803110D01*
X2854860Y4554860D02*
X2879625Y4554860D01*
X2760015Y4362390D02*
X2760015Y4460015D01*
X2854860Y4554860D01*
X2845140Y4554860D02*
X2845140Y4564580D01*
X2609115Y4554860D02*
X2633880Y4554860D01*
X2760015Y4362390D02*
X2764975Y4357430D01*
X2764975Y4304255D02*
X2764975Y4357430D01*
X2709055Y4357430D02*
X2714015Y4362390D01*
X2633880Y4554860D02*
X2714015Y4474725D01*
X2714015Y4362390D02*
X2714015Y4474725D01*
X2764975Y4304255D02*
X2777015Y4292215D01*
X2709055Y4304255D02*
X2709055Y4357430D01*
X2767370Y5092860D02*
X2774370Y5099860D01*
X2767370Y5032629D02*
X2767370Y5092860D01*
X2764870Y5030129D02*
X2767370Y5032629D01*
X2764870Y4824663D02*
X2764870Y5030129D01*
X2764870Y4824663D02*
X2767370Y4822164D01*
X2716370Y5032629D02*
X2718870Y5030129D01*
X2718870Y4805610D02*
X2718870Y5030129D01*
X2709370Y5099860D02*
X2716370Y5092860D01*
X2716370Y5032629D02*
X2716370Y5092860D01*
X2718870Y4805610D02*
X2721370Y4803110D01*
X2697015Y4292215D02*
X2709055Y4304255D01*
D35*
X2379370Y5367360D02*
D03*
X3039370Y5367360D02*
D03*
D36*
X1877000Y5096000D02*
D03*
X1750000Y5350000D02*
D03*
X1623000Y5096000D02*
D03*
X2004000Y5350000D02*
D03*
X4927000Y2054000D02*
D03*
X4800000Y1800000D02*
D03*
X4673000Y2054000D02*
D03*
X4546000Y1800000D02*
D03*
X3754000Y5350000D02*
D03*
X3627000Y5096000D02*
D03*
X3500000Y5350000D02*
D03*
X3373000Y5096000D02*
D03*
X4654000Y5350000D02*
D03*
X4527000Y5096000D02*
D03*
X4400000Y5350000D02*
D03*
X4273000Y5096000D02*
D03*
D37*
X1100000Y5250000D02*
D03*
X1100000Y1000000D02*
D03*
X5200000Y5250000D02*
D03*
D38*
X4247530Y1600000D02*
D03*
X4547530Y1600000D02*
D03*
X3610000Y1617500D02*
D03*
X3690000Y1617500D02*
D03*
X2537015Y3318289D02*
D03*
X3727470Y3100000D02*
D03*
X2577470Y3100000D02*
D03*
X2450000Y1500000D02*
D03*
X3300000Y1500000D02*
D03*
X4350000Y850000D02*
D03*
X4250000Y850000D02*
D03*
X4250000Y950000D02*
D03*
X4350000Y950000D02*
D03*
X4450000Y850000D02*
D03*
X4450000Y950000D02*
D03*
X4250000Y1050000D02*
D03*
X4450000Y1050000D02*
D03*
X4350000Y1050000D02*
D03*
X2594510Y4649860D02*
D03*
X1760000Y1490000D02*
D03*
X2610000Y1490000D02*
D03*
X3460000Y1490000D02*
D03*
X1600000Y1500000D02*
D03*
X1950000Y1500000D02*
D03*
X2250000Y1500000D02*
D03*
X2800000Y1500000D02*
D03*
X3100000Y1500000D02*
D03*
X3650000Y1500000D02*
D03*
X3950000Y1500000D02*
D03*
X3840000Y1490000D02*
D03*
X2990000Y1490000D02*
D03*
X2140000Y1490000D02*
D03*
X4850000Y1540500D02*
D03*
X1655500Y2377525D02*
D03*
X2417500Y2377525D02*
D03*
X2805500Y2377525D02*
D03*
X3735090Y4900000D02*
D03*
X3567500Y2922475D02*
D03*
X3572530Y3100000D02*
D03*
X2389660Y3584860D02*
D03*
X1650000Y3850000D02*
D03*
X1619208Y3650000D02*
D03*
X2197530Y3450000D02*
D03*
X2954940Y3250000D02*
D03*
X3244370Y3984860D02*
D03*
X3550000Y4050000D02*
D03*
X3244370Y4144860D02*
D03*
X3402470Y4300000D02*
D03*
X3173991Y4538540D02*
D03*
X4627470Y4900000D02*
D03*
X3029460Y4969310D02*
D03*
X2579370Y5099860D02*
D03*
X1977470Y4900000D02*
D03*
X4850000Y850000D02*
D03*
X4750000Y850000D02*
D03*
X4650000Y850000D02*
D03*
X4650000Y950000D02*
D03*
X4750000Y950000D02*
D03*
X4850000Y950000D02*
D03*
X4850000Y1050000D02*
D03*
X4750000Y1050000D02*
D03*
X4650000Y1050000D02*
D03*
X4586088Y1307500D02*
D03*
X1925000Y1617500D02*
D03*
X2010000Y1617500D02*
D03*
X2750000Y1617500D02*
D03*
X5300000Y850000D02*
D03*
X5200000Y850000D02*
D03*
X5100000Y850000D02*
D03*
X5100000Y950000D02*
D03*
X5200000Y950000D02*
D03*
X5300000Y950000D02*
D03*
X5300000Y1050000D02*
D03*
X5200000Y1050000D02*
D03*
X5100000Y1050000D02*
D03*
X2691546Y3184050D02*
D03*
X2164310Y3200000D02*
D03*
X1990000Y3370000D02*
D03*
X2040000Y3080000D02*
D03*
X2425000Y1850000D02*
D03*
X5122530Y1700000D02*
D03*
X4150000Y1675000D02*
D03*
X3230000Y970000D02*
D03*
X2380000Y980000D02*
D03*
X1375000Y1400000D02*
D03*
X1725000Y2125000D02*
D03*
X3750000Y3900000D02*
D03*
X3475000Y3850000D02*
D03*
X4975000Y4900000D02*
D03*
X4075000Y5325000D02*
D03*
X1700000Y3300000D02*
D03*
X3750000Y3400000D02*
D03*
X3475000Y3400000D02*
D03*
X2175000Y4675000D02*
D03*
X1450000Y4775000D02*
D03*
X2325000Y3675000D02*
D03*
X2700000Y3375000D02*
D03*
X2625000Y3375000D02*
D03*
X1857500Y1697370D02*
D03*
X2042500Y1697370D02*
D03*
X2250000Y4175000D02*
D03*
X3550000Y4325000D02*
D03*
X3440830Y1678860D02*
D03*
X3742500Y1702370D02*
D03*
X2892500Y1697370D02*
D03*
X2707500Y1697370D02*
D03*
X2604475Y1691352D02*
D03*
X1754475Y1691352D02*
D03*
X2850000Y1625000D02*
D03*
X2475000Y1687630D02*
D03*
X3491860Y1783130D02*
D03*
X3445000Y4722621D02*
D03*
X2805500Y2922475D02*
D03*
X1655500Y2922475D02*
D03*
X1646500Y4227000D02*
D03*
X1650000Y4100000D02*
D03*
X2422530Y3100000D02*
D03*
X3514910Y2200000D02*
D03*
X3567500Y2377525D02*
D03*
X2800000Y2136370D02*
D03*
X3700000Y4652470D02*
D03*
X2372530Y2200000D02*
D03*
X3325000Y1662630D02*
D03*
X3775000Y1325000D02*
D03*
X3650000Y1325000D02*
D03*
X3525000Y1325000D02*
D03*
X2675000Y1325000D02*
D03*
X2925000Y1325000D02*
D03*
X2800000Y1324740D02*
D03*
X1825000Y1325000D02*
D03*
X2075000Y1325000D02*
D03*
X1950000Y1324740D02*
D03*
X3820000Y1964970D02*
D03*
X3475000Y1967380D02*
D03*
X2975000Y1964970D02*
D03*
X2625000Y1964970D02*
D03*
X1775000Y1964840D02*
D03*
X2025000Y1964840D02*
D03*
X1875000Y1964840D02*
D03*
X1625000Y1687630D02*
D03*
X2250000Y1687630D02*
D03*
X3100000Y1687630D02*
D03*
X2725000Y1964970D02*
D03*
X2875000Y1964840D02*
D03*
X3575000Y1964840D02*
D03*
X3725000Y1967380D02*
D03*
X3950000Y1687630D02*
D03*
X2000000Y2050000D02*
D03*
X3350000Y1850000D02*
D03*
X2000000Y2250000D02*
D03*
X2250000Y2050000D02*
D03*
X2250000Y2250000D02*
D03*
X5300000Y1450000D02*
D03*
X2525000Y2200000D02*
D03*
X3677470Y2200000D02*
D03*
X5200000Y1350000D02*
D03*
X5200000Y1250000D02*
D03*
X5300000Y1250000D02*
D03*
X5300000Y1350000D02*
D03*
X5200000Y1450000D02*
D03*
X5100000Y1450000D02*
D03*
X5100000Y1250000D02*
D03*
X5100000Y1350000D02*
D03*
X3655200Y3750000D02*
D03*
X3655200Y3600000D02*
D03*
X3725000Y4145060D02*
D03*
X2965000Y3800000D02*
D03*
X2900000Y3800000D02*
D03*
X2700000Y3900000D02*
D03*
X3450000Y3200000D02*
D03*
X2556785Y3568183D02*
D03*
X2500105Y3600000D02*
D03*
X2281427Y4103432D02*
D03*
X2080010Y3650000D02*
D03*
X2192708Y3766500D02*
D03*
X1998486Y3766375D02*
D03*
X2600000Y4900000D02*
D03*
X3200000Y4900000D02*
D03*
X3725000Y4300000D02*
D03*
X3450000Y4500000D02*
D03*
D39*
X2417500Y2922475D02*
D03*
%TF.MD5,e01caf6cf471c7d1875ba3de2b288338*%
M02*
