%TF.GenerationSoftware,Altium Limited,Altium Designer,22.9.1 (49)*%
G04 Layer_Color=16711935*
%FSLAX45Y45*%
%MOMM*%
%TF.SameCoordinates,1FC91EB1-9634-4345-979C-C496A52DE46E*%
%TF.FilePolarity,Negative*%
%TF.FileFunction,Soldermask,Bot*%
%TF.Part,Single*%
G01*
G75*
%TA.AperFunction,SMDPad,CuDef*%
%ADD50R,1.00000X0.70000*%
%ADD57R,1.15000X0.65000*%
%ADD58R,4.50000X4.50000*%
%ADD59R,0.96360X0.98900*%
%ADD60R,0.86200X0.91280*%
%ADD61R,0.91280X0.86200*%
%ADD62R,1.44620X1.16680*%
%TA.AperFunction,ComponentPad*%
%ADD63C,1.40000*%
%ADD64C,0.10000*%
%ADD65O,1.00000X1.90000*%
%TA.AperFunction,ViaPad*%
%ADD66C,1.10000*%
D50*
X4595000Y1420000D02*
D03*
X4595000Y1325000D02*
D03*
X4595000Y1230000D02*
D03*
X4355000Y1230000D02*
D03*
X4355000Y1420000D02*
D03*
D57*
X4850000Y1234500D02*
D03*
X4850000Y1361500D02*
D03*
X4850000Y1488500D02*
D03*
X4850000Y1615500D02*
D03*
D58*
X5200000Y1425000D02*
D03*
D59*
X4702470Y1600000D02*
D03*
X4547530Y1600000D02*
D03*
X4402470Y1600000D02*
D03*
X4247530Y1600000D02*
D03*
X5277470Y1750000D02*
D03*
X5122530Y1750000D02*
D03*
D60*
X2602470Y1650000D02*
D03*
X2447530Y1650000D02*
D03*
X3477470Y1637370D02*
D03*
X3322530Y1637370D02*
D03*
X1597530Y1650000D02*
D03*
X1752470Y1650000D02*
D03*
D61*
X2625000Y1964970D02*
D03*
X2625000Y1810030D02*
D03*
X2975000Y1964970D02*
D03*
X2975000Y1810030D02*
D03*
X3820000Y1964970D02*
D03*
X3820000Y1810030D02*
D03*
X3475000Y1964840D02*
D03*
X3475000Y1809900D02*
D03*
X3725000Y4145060D02*
D03*
X3725000Y4300000D02*
D03*
X2125000Y1809900D02*
D03*
X2125000Y1964840D02*
D03*
X1775000Y1809900D02*
D03*
X1775000Y1964840D02*
D03*
D62*
X2800000Y1324740D02*
D03*
X2800000Y1500000D02*
D03*
X2975000Y1324740D02*
D03*
X2975000Y1500000D02*
D03*
X2625000Y1324740D02*
D03*
X2625000Y1500000D02*
D03*
X3475000Y1324740D02*
D03*
X3475000Y1500000D02*
D03*
X3650000Y1324740D02*
D03*
X3650000Y1500000D02*
D03*
X3825000Y1324740D02*
D03*
X3825000Y1500000D02*
D03*
X1775000Y1500000D02*
D03*
X1775000Y1324740D02*
D03*
X1950000Y1500000D02*
D03*
X1950000Y1324740D02*
D03*
X2125000Y1500000D02*
D03*
X2125000Y1324740D02*
D03*
D63*
X4423000Y1821000D02*
D03*
X4550000Y2075000D02*
D03*
X4677000Y1821000D02*
D03*
X4804000Y2075000D02*
D03*
X1877000Y5096000D02*
D03*
X1750000Y5350000D02*
D03*
X1623000Y5096000D02*
D03*
X2004000Y5350000D02*
D03*
X3754000Y5350000D02*
D03*
X3627000Y5096000D02*
D03*
X3500000Y5350000D02*
D03*
X3373000Y5096000D02*
D03*
X4654000Y5350000D02*
D03*
X4527000Y5096000D02*
D03*
X4400000Y5350000D02*
D03*
X4273000Y5096000D02*
D03*
D64*
X4283000Y2001000D02*
D03*
X2144000Y5170000D02*
D03*
X3894000Y5170000D02*
D03*
X4794000Y5170000D02*
D03*
D65*
X2379370Y5367360D02*
D03*
X3039370Y5367360D02*
D03*
D66*
X1100000Y5250000D02*
D03*
X1100000Y1000000D02*
D03*
X5200000Y5250000D02*
D03*
%TF.MD5,db7c7cfc31deacac88c1b6b10bf3c014*%
M02*
