%TF.GenerationSoftware,Altium Limited,Altium Designer,22.9.1 (49)*%
G04 Layer_Physical_Order=4*
G04 Layer_Color=16711680*
%FSLAX45Y45*%
%MOMM*%
%TF.SameCoordinates,CD82FF21-FF23-4195-95DD-DD0BBBA1307D*%
%TF.FilePolarity,Positive*%
%TF.FileFunction,Copper,L4,Bot,Signal*%
%TF.Part,Single*%
G01*
G75*
%TA.AperFunction,SMDPad,CuDef*%
%ADD15R,0.86360X0.88900*%
%ADD23R,0.81280X0.76200*%
%ADD24R,1.34620X1.06680*%
%ADD27R,0.76200X0.81280*%
%TA.AperFunction,Conductor*%
%ADD32C,0.25400*%
%ADD33C,0.50000*%
%TA.AperFunction,ComponentPad*%
%ADD35O,0.90000X1.80000*%
%ADD36C,1.30000*%
%TA.AperFunction,ViaPad*%
%ADD37C,1.00000*%
%ADD38C,0.45000*%
%TA.AperFunction,TestPad*%
%ADD39C,0.45000*%
%TA.AperFunction,SMDPad,CuDef*%
%ADD48R,1.00000X0.70000*%
%ADD49R,4.40000X4.40000*%
%ADD50R,1.05000X0.55000*%
%TA.AperFunction,Conductor*%
%ADD51C,1.50000*%
%ADD52C,0.80000*%
D15*
X4702470Y1600000D02*
D03*
X4547530Y1600000D02*
D03*
X4402470Y1600000D02*
D03*
X4247530Y1600000D02*
D03*
X5277470Y1700000D02*
D03*
X5122530Y1700000D02*
D03*
D23*
X2625000Y1964970D02*
D03*
X2625000Y1810030D02*
D03*
X2975000Y1964970D02*
D03*
X2975000Y1810030D02*
D03*
X3820000Y1964970D02*
D03*
X3820000Y1810030D02*
D03*
X3475000Y1964840D02*
D03*
X3475000Y1809900D02*
D03*
X3725000Y4145060D02*
D03*
X3725000Y4300000D02*
D03*
X2125000Y1809900D02*
D03*
X2125000Y1964840D02*
D03*
X1775000Y1809900D02*
D03*
X1775000Y1964840D02*
D03*
D24*
X2800000Y1324740D02*
D03*
X2800000Y1500000D02*
D03*
X2975000Y1324740D02*
D03*
X2975000Y1500000D02*
D03*
X2625000Y1324740D02*
D03*
X2625000Y1500000D02*
D03*
X3475000Y1324740D02*
D03*
X3475000Y1500000D02*
D03*
X3650000Y1324740D02*
D03*
X3650000Y1500000D02*
D03*
X3825000Y1324740D02*
D03*
X3825000Y1500000D02*
D03*
X1775000Y1500000D02*
D03*
X1775000Y1324740D02*
D03*
X1950000Y1500000D02*
D03*
X1950000Y1324740D02*
D03*
X2125000Y1500000D02*
D03*
X2125000Y1324740D02*
D03*
D27*
X2602470Y1650000D02*
D03*
X2447530Y1650000D02*
D03*
X3477470Y1637370D02*
D03*
X3322530Y1637370D02*
D03*
X1597530Y1650000D02*
D03*
X1752470Y1650000D02*
D03*
D32*
X3596250Y1636294D02*
X3610000Y1622544D01*
X3610000Y1617500D02*
X3610000Y1622544D01*
X3627730Y3100000D02*
X3627730Y3122864D01*
X3517330Y3100000D02*
X3517330Y3122864D01*
X3549665Y3155200D01*
X3595395Y3155200D01*
X3627730Y3122864D01*
X2577470Y3100000D02*
X3517330Y3100000D01*
X3627730Y3100000D02*
X3727470Y3100000D01*
X2537015Y3145246D02*
X2577470Y3104791D01*
X2537015Y3145246D02*
X2537015Y3318289D01*
X2577470Y3100000D02*
X2577470Y3104791D01*
X2040000Y3080000D02*
X2180000Y3080000D01*
X2475000Y3375000D02*
X2625000Y3375000D01*
X2180000Y3080000D02*
X2475000Y3375000D01*
X3373000Y4948701D02*
X3373000Y5096000D01*
X1620000Y5093000D02*
X1623000Y5096000D01*
X1620000Y4720000D02*
X1620000Y5093000D01*
X3255200Y5155200D02*
X3450000Y5350000D01*
X2025000Y1964840D02*
X2125000Y1964840D01*
X2756532Y1623772D02*
X2800000Y1667240D01*
X1925000Y1617500D02*
X1928664Y1617500D01*
X2800000Y1667240D02*
X2800000Y2136370D01*
X1928664Y1617500D02*
X1978533Y1667369D01*
X2750000Y1617500D02*
X2756272Y1623772D01*
X2756532Y1623772D01*
X2696250Y3188754D02*
X2696250Y3371250D01*
X2691546Y3184050D02*
X2696250Y3188754D01*
X2696250Y3371250D02*
X2700000Y3375000D01*
X2164310Y3200000D02*
X2348402Y3384092D01*
X2372694Y3384092D02*
X2556785Y3568183D01*
X2348402Y3384092D02*
X2372694Y3384092D01*
X1990000Y3370000D02*
X2270105Y3370000D01*
X2500105Y3600000D01*
X1880762Y4459238D02*
X1965762Y4459238D01*
X1620000Y4720000D02*
X1880762Y4459238D01*
X1750000Y4830000D02*
X1750000Y5350000D01*
X2305200Y4132509D02*
X2305200Y4274800D01*
X1750000Y4830000D02*
X2305200Y4274800D01*
X2267052Y3671250D02*
X2321250Y3671250D01*
X2325000Y3675000D01*
X2245802Y3650000D02*
X2267052Y3671250D01*
X2080010Y3650000D02*
X2245802Y3650000D01*
X1853750Y1701121D02*
X1853750Y1733690D01*
X1853750Y1701121D02*
X1857500Y1697370D01*
X1777540Y1809900D02*
X1853750Y1733690D01*
X2046250Y1733690D02*
X2122460Y1809900D01*
X2042500Y1697370D02*
X2046250Y1701121D01*
X2046250Y1733690D01*
X2281427Y4108735D02*
X2305200Y4132509D01*
X1965762Y4459238D02*
X2250000Y4175000D01*
X2281427Y4103432D02*
X2281427Y4108735D01*
X3450000Y4419696D02*
X3450000Y4500000D01*
X3450000Y4419696D02*
X3544696Y4325000D01*
X3550000Y4325000D01*
X3440830Y1676551D02*
X3477470Y1639910D01*
X3477470Y1637370D02*
X3477470Y1639910D01*
X3440830Y1676551D02*
X3440830Y1678860D01*
X3425855Y1734061D02*
X3463694Y1734061D01*
X3469825Y1727930D01*
X3395610Y1764305D02*
X3425855Y1734061D01*
X3469825Y1727930D02*
X3511895Y1727930D01*
X3596250Y1643575D01*
X3596250Y1636294D02*
X3596250Y1643575D01*
X3746250Y1738820D02*
X3817460Y1810030D01*
X3742500Y1702370D02*
X3746250Y1706120D01*
X3746250Y1738820D01*
X2896250Y1701121D02*
X2896250Y1733820D01*
X2892500Y1697370D02*
X2896250Y1701121D01*
X2896250Y1733820D02*
X2972460Y1810030D01*
X2703750Y1701121D02*
X2703750Y1733820D01*
X2627540Y1810030D02*
X2703750Y1733820D01*
X2703750Y1701121D02*
X2707500Y1697370D01*
X2602470Y1650000D02*
X2604475Y1652005D01*
X2604475Y1691352D01*
X1754475Y1652005D02*
X1754475Y1691352D01*
X1752470Y1650000D02*
X1754475Y1652005D01*
X1978533Y1667369D02*
X1978533Y1788418D01*
X3817460Y1810030D02*
X3820000Y1810030D01*
X3491860Y1783130D02*
X3491860Y1793040D01*
X3350000Y1850000D02*
X3395610Y1804390D01*
X3395610Y1764305D02*
X3395610Y1804390D01*
X3475000Y1809900D02*
X3491860Y1793040D01*
X2800000Y2136370D02*
X2800000Y2150000D01*
X3769850Y4731019D02*
X4388831Y5350000D01*
X3769850Y4469835D02*
X3769850Y4731019D01*
X3651660Y4351645D02*
X3769850Y4469835D01*
X3842300Y4665300D02*
X4273000Y5096000D01*
X3842300Y3792300D02*
X3842300Y4665300D01*
X2314098Y1894040D02*
X2556427Y2136370D01*
X2800000Y2136370D01*
X2084156Y1894040D02*
X2314098Y1894040D01*
X1978533Y1788418D02*
X2084156Y1894040D01*
X2000000Y2050000D02*
X2000000Y2250000D01*
X2250000Y2050000D02*
X2250000Y2250000D01*
X2972460Y1810030D02*
X2975000Y1810030D01*
X2625000Y1810030D02*
X2627540Y1810030D01*
X2122460Y1809900D02*
X2125000Y1809900D01*
X1775000Y1809900D02*
X1777540Y1809900D01*
X5200000Y1350000D02*
X5277470Y1427470D01*
X3651660Y3753540D02*
X3651660Y4351645D01*
X3655200Y3605200D02*
X3842300Y3792300D01*
X3655200Y3600000D02*
X3655200Y3605200D01*
X3651660Y3753540D02*
X3655200Y3750000D01*
X4388831Y5350000D02*
X4400000Y5350000D01*
X3300600Y4522879D02*
X3300600Y4876300D01*
X3373000Y4948701D01*
X2965000Y3800000D02*
X2965000Y4187279D01*
X3300600Y4522879D01*
X2900000Y3800000D02*
X2900000Y4186484D01*
X3255200Y4541684D01*
X3255200Y5155200D01*
X3396250Y3203750D02*
X3446250Y3203750D01*
X2700000Y3900000D02*
X3396250Y3203750D01*
X3446250Y3203750D02*
X3450000Y3200000D01*
X1998486Y3766375D02*
X1998548Y3766437D01*
X2192646Y3766437D02*
X2192708Y3766500D01*
X1998548Y3766437D02*
X2192646Y3766437D01*
X2600000Y4900000D02*
X3200000Y4900000D01*
D33*
X4422530Y1600000D02*
X4422530Y1601270D01*
X4422530Y1487530D02*
X4422530Y1600000D01*
X4355000Y1420000D02*
X4422530Y1487530D01*
X4403080Y1619450D02*
X4404350Y1619450D01*
X3677470Y2200000D02*
X3822530Y2200000D01*
X4404350Y1619450D02*
X4422530Y1601270D01*
X3822530Y2200000D02*
X4403080Y1619450D01*
X3598430Y2279040D02*
X3677470Y2200000D01*
X2525000Y2200000D02*
X2604040Y2279040D01*
X3598430Y2279040D01*
D35*
X2379370Y5367360D02*
D03*
X3039370Y5367360D02*
D03*
D36*
X1877000Y5096000D02*
D03*
X1750000Y5350000D02*
D03*
X1623000Y5096000D02*
D03*
X2004000Y5350000D02*
D03*
X4927000Y2054000D02*
D03*
X4800000Y1800000D02*
D03*
X4673000Y2054000D02*
D03*
X4546000Y1800000D02*
D03*
X3754000Y5350000D02*
D03*
X3627000Y5096000D02*
D03*
X3500000Y5350000D02*
D03*
X3373000Y5096000D02*
D03*
X4654000Y5350000D02*
D03*
X4527000Y5096000D02*
D03*
X4400000Y5350000D02*
D03*
X4273000Y5096000D02*
D03*
D37*
X1100000Y5250000D02*
D03*
X1100000Y1000000D02*
D03*
X5200000Y5250000D02*
D03*
D38*
X4247530Y1600000D02*
D03*
X4547530Y1600000D02*
D03*
X3610000Y1617500D02*
D03*
X3690000Y1617500D02*
D03*
X2537015Y3318289D02*
D03*
X3727470Y3100000D02*
D03*
X2577470Y3100000D02*
D03*
X2450000Y1500000D02*
D03*
X3300000Y1500000D02*
D03*
X4350000Y850000D02*
D03*
X4250000Y850000D02*
D03*
X4250000Y950000D02*
D03*
X4350000Y950000D02*
D03*
X4450000Y850000D02*
D03*
X4450000Y950000D02*
D03*
X4250000Y1050000D02*
D03*
X4450000Y1050000D02*
D03*
X4350000Y1050000D02*
D03*
X2594510Y4649860D02*
D03*
X1760000Y1490000D02*
D03*
X2610000Y1490000D02*
D03*
X3460000Y1490000D02*
D03*
X1600000Y1500000D02*
D03*
X1950000Y1500000D02*
D03*
X2250000Y1500000D02*
D03*
X2800000Y1500000D02*
D03*
X3100000Y1500000D02*
D03*
X3650000Y1500000D02*
D03*
X3950000Y1500000D02*
D03*
X3840000Y1490000D02*
D03*
X2990000Y1490000D02*
D03*
X2140000Y1490000D02*
D03*
X4850000Y1540500D02*
D03*
X1655500Y2377525D02*
D03*
X2417500Y2377525D02*
D03*
X2805500Y2377525D02*
D03*
X3735090Y4900000D02*
D03*
X3567500Y2922475D02*
D03*
X3572530Y3100000D02*
D03*
X2389660Y3584860D02*
D03*
X1650000Y3850000D02*
D03*
X1619208Y3650000D02*
D03*
X2197530Y3450000D02*
D03*
X2954940Y3250000D02*
D03*
X3244370Y3984860D02*
D03*
X3550000Y4050000D02*
D03*
X3244370Y4144860D02*
D03*
X3402470Y4300000D02*
D03*
X3173991Y4538540D02*
D03*
X4627470Y4900000D02*
D03*
X3029460Y4969310D02*
D03*
X2579370Y5099860D02*
D03*
X1977470Y4900000D02*
D03*
X4850000Y850000D02*
D03*
X4750000Y850000D02*
D03*
X4650000Y850000D02*
D03*
X4650000Y950000D02*
D03*
X4750000Y950000D02*
D03*
X4850000Y950000D02*
D03*
X4850000Y1050000D02*
D03*
X4750000Y1050000D02*
D03*
X4650000Y1050000D02*
D03*
X4586088Y1307500D02*
D03*
X1925000Y1617500D02*
D03*
X2010000Y1617500D02*
D03*
X2750000Y1617500D02*
D03*
X5300000Y850000D02*
D03*
X5200000Y850000D02*
D03*
X5100000Y850000D02*
D03*
X5100000Y950000D02*
D03*
X5200000Y950000D02*
D03*
X5300000Y950000D02*
D03*
X5300000Y1050000D02*
D03*
X5200000Y1050000D02*
D03*
X5100000Y1050000D02*
D03*
X2691546Y3184050D02*
D03*
X2164310Y3200000D02*
D03*
X1990000Y3370000D02*
D03*
X2040000Y3080000D02*
D03*
X2425000Y1850000D02*
D03*
X5122530Y1700000D02*
D03*
X4150000Y1675000D02*
D03*
X3230000Y970000D02*
D03*
X2380000Y980000D02*
D03*
X1375000Y1400000D02*
D03*
X1725000Y2125000D02*
D03*
X3750000Y3900000D02*
D03*
X3475000Y3850000D02*
D03*
X4975000Y4900000D02*
D03*
X4075000Y5325000D02*
D03*
X1700000Y3300000D02*
D03*
X3750000Y3400000D02*
D03*
X3475000Y3400000D02*
D03*
X2175000Y4675000D02*
D03*
X1450000Y4775000D02*
D03*
X2325000Y3675000D02*
D03*
X2700000Y3375000D02*
D03*
X2625000Y3375000D02*
D03*
X1857500Y1697370D02*
D03*
X2042500Y1697370D02*
D03*
X2250000Y4175000D02*
D03*
X3550000Y4325000D02*
D03*
X3440830Y1678860D02*
D03*
X3742500Y1702370D02*
D03*
X2892500Y1697370D02*
D03*
X2707500Y1697370D02*
D03*
X2604475Y1691352D02*
D03*
X1754475Y1691352D02*
D03*
X2850000Y1625000D02*
D03*
X2475000Y1687630D02*
D03*
X3491860Y1783130D02*
D03*
X3445000Y4722621D02*
D03*
X2805500Y2922475D02*
D03*
X1655500Y2922475D02*
D03*
X1646500Y4227000D02*
D03*
X1650000Y4100000D02*
D03*
X2422530Y3100000D02*
D03*
X3514910Y2200000D02*
D03*
X3567500Y2377525D02*
D03*
X2800000Y2136370D02*
D03*
X3700000Y4652470D02*
D03*
X2372530Y2200000D02*
D03*
X3325000Y1662630D02*
D03*
X3775000Y1325000D02*
D03*
X3650000Y1325000D02*
D03*
X3525000Y1325000D02*
D03*
X2675000Y1325000D02*
D03*
X2925000Y1325000D02*
D03*
X2800000Y1324740D02*
D03*
X1825000Y1325000D02*
D03*
X2075000Y1325000D02*
D03*
X1950000Y1324740D02*
D03*
X3820000Y1964970D02*
D03*
X3475000Y1967380D02*
D03*
X2975000Y1964970D02*
D03*
X2625000Y1964970D02*
D03*
X1775000Y1964840D02*
D03*
X2025000Y1964840D02*
D03*
X1875000Y1964840D02*
D03*
X1625000Y1687630D02*
D03*
X2250000Y1687630D02*
D03*
X3100000Y1687630D02*
D03*
X2725000Y1964970D02*
D03*
X2875000Y1964840D02*
D03*
X3575000Y1964840D02*
D03*
X3725000Y1967380D02*
D03*
X3950000Y1687630D02*
D03*
X2000000Y2050000D02*
D03*
X3350000Y1850000D02*
D03*
X2000000Y2250000D02*
D03*
X2250000Y2050000D02*
D03*
X2250000Y2250000D02*
D03*
X5300000Y1450000D02*
D03*
X2525000Y2200000D02*
D03*
X3677470Y2200000D02*
D03*
X5200000Y1350000D02*
D03*
X5200000Y1250000D02*
D03*
X5300000Y1250000D02*
D03*
X5300000Y1350000D02*
D03*
X5200000Y1450000D02*
D03*
X5100000Y1450000D02*
D03*
X5100000Y1250000D02*
D03*
X5100000Y1350000D02*
D03*
X3655200Y3750000D02*
D03*
X3655200Y3600000D02*
D03*
X3725000Y4145060D02*
D03*
X2965000Y3800000D02*
D03*
X2900000Y3800000D02*
D03*
X2700000Y3900000D02*
D03*
X3450000Y3200000D02*
D03*
X2556785Y3568183D02*
D03*
X2500105Y3600000D02*
D03*
X2281427Y4103432D02*
D03*
X2080010Y3650000D02*
D03*
X2192708Y3766500D02*
D03*
X1998486Y3766375D02*
D03*
X2600000Y4900000D02*
D03*
X3200000Y4900000D02*
D03*
X3725000Y4300000D02*
D03*
X3450000Y4500000D02*
D03*
D39*
X2417500Y2922475D02*
D03*
D48*
X4595000Y1420000D02*
D03*
X4595000Y1325000D02*
D03*
X4595000Y1230000D02*
D03*
X4355000Y1230000D02*
D03*
X4355000Y1420000D02*
D03*
D49*
X5200000Y1350000D02*
D03*
D50*
X4850000Y1540500D02*
D03*
X4850000Y1413500D02*
D03*
X4850000Y1286500D02*
D03*
X4850000Y1159500D02*
D03*
D51*
X4350000Y950000D02*
X4450000Y850000D01*
X4450000Y850000D02*
X4450000Y950000D01*
X4450000Y850000D02*
X4450000Y850000D01*
X4450000Y1017425D02*
X4600075Y1167500D01*
X4450000Y950000D02*
X4450000Y1017425D01*
X4450000Y850000D02*
X4450000Y850000D01*
X4702470Y1600000D02*
X4702500Y1599970D01*
X4702500Y1473650D02*
X4702500Y1599970D01*
X4702500Y1473650D02*
X4703800Y1472349D01*
X4703800Y1460550D02*
X4703800Y1472349D01*
X3850000Y1500000D02*
X3950000Y1500000D01*
X3650000Y1500000D02*
X3825000Y1500000D01*
X4175000Y1125000D02*
X4175000Y1250000D01*
X3935000Y1490000D02*
X4175000Y1250000D01*
X4175000Y1125000D02*
X4250000Y1050000D01*
X3300000Y1500000D02*
X3475000Y1500000D01*
X2450000Y1500000D02*
X2625000Y1500000D01*
X3100000Y1500000D02*
X3300000Y1500000D01*
X2250000Y1500000D02*
X2450000Y1500000D01*
X3475000Y1500000D02*
X3650000Y1500000D01*
X2975000Y1500000D02*
X3100000Y1500000D01*
X2800000Y1500000D02*
X2975000Y1500000D01*
X2625000Y1500000D02*
X2800000Y1500000D01*
X2125000Y1500000D02*
X2250000Y1500000D01*
X1950000Y1500000D02*
X2125000Y1500000D01*
X1775000Y1500000D02*
X1950000Y1500000D01*
X1637370Y1500000D02*
X1775000Y1500000D01*
X1625000Y1512370D02*
X1637370Y1500000D01*
X4250000Y850000D02*
X4350000Y850000D01*
X4245325Y854675D02*
X4250000Y850000D01*
X4245325Y854675D02*
X4245325Y1050000D01*
X4350000Y850000D02*
X4450000Y850000D01*
X4450000Y1017425D02*
X4450000Y1050000D01*
X4350000Y1050000D02*
X4450000Y1050000D01*
X4450000Y1017425D02*
X4450000Y1017425D01*
X4250000Y1050000D02*
X4350000Y1050000D01*
X4600000Y1460550D02*
X4703800Y1460550D01*
X4842000Y1167500D02*
X4850000Y1175500D01*
X4600075Y1167500D02*
X4842000Y1167500D01*
X4750850Y1413500D02*
X4850000Y1413500D01*
X4850000Y1175500D02*
X4850000Y1286500D01*
X4703800Y1460550D02*
X4750850Y1413500D01*
X4850000Y1286500D02*
X4850000Y1413500D01*
D52*
X5277470Y1427470D02*
X5277470Y1700000D01*
%TF.MD5,44b1df4a3a6bf590d337d405d38cdec2*%
M02*
