%TF.GenerationSoftware,Altium Limited,Altium Designer,22.9.1 (49)*%
G04 Layer_Color=32896*
%FSLAX45Y45*%
%MOMM*%
%TF.SameCoordinates,980CB771-C75C-4F2C-B837-E40D3F653A85*%
%TF.FilePolarity,Positive*%
%TF.FileFunction,Legend,Bot*%
%TF.Part,Single*%
G01*
G75*
%TA.AperFunction,NonConductor*%
%ADD53C,0.25000*%
%ADD54C,0.20000*%
%ADD55C,0.15240*%
%ADD56C,0.15000*%
D53*
X4862500Y1152000D02*
G03*
X4862500Y1152000I-12500J0D01*
G01*
X4727500Y1420000D02*
G03*
X4727500Y1420000I-12500J0D01*
G01*
D54*
X4442500Y1482500D02*
X4507500Y1482500D01*
X4392500Y1302500D02*
X4392500Y1347500D01*
X4442500Y1167500D02*
X4507500Y1167500D01*
D55*
X2516385Y1596660D02*
X2533615Y1596660D01*
X2516385Y1703340D02*
X2533615Y1703340D01*
X2678340Y1878885D02*
X2678340Y1896115D01*
X2571660Y1878885D02*
X2571660Y1896115D01*
X3028340Y1878885D02*
X3028340Y1896115D01*
X2921660Y1878885D02*
X2921660Y1896115D01*
X3873340Y1878885D02*
X3873340Y1896115D01*
X3766660Y1878885D02*
X3766660Y1896115D01*
X3528340Y1878755D02*
X3528340Y1895985D01*
X3421660Y1878755D02*
X3421660Y1895985D01*
X3391385Y1584030D02*
X3408615Y1584030D01*
X3391385Y1690710D02*
X3408615Y1690710D01*
X3671660Y4213915D02*
X3671660Y4231145D01*
X3778340Y4213915D02*
X3778340Y4231145D01*
X2071660Y1878755D02*
X2071660Y1895985D01*
X2178340Y1878755D02*
X2178340Y1895985D01*
X1721660Y1878755D02*
X1721660Y1895985D01*
X1828340Y1878755D02*
X1828340Y1895985D01*
X1666385Y1703340D02*
X1683615Y1703340D01*
X1666385Y1596660D02*
X1683615Y1596660D01*
D56*
X1753316Y1226658D02*
X1766645Y1239987D01*
X1793303Y1239987D01*
X1806632Y1226658D01*
X1806632Y1173342D01*
X1793303Y1160013D01*
X1766645Y1160013D01*
X1753316Y1173342D01*
X1673342Y1160013D02*
X1726658Y1160013D01*
X1673342Y1213329D01*
X1673342Y1226658D01*
X1686671Y1239987D01*
X1713329Y1239987D01*
X1726658Y1226658D01*
X1646684Y1226658D02*
X1633355Y1239987D01*
X1606697Y1239987D01*
X1593368Y1226658D01*
X1593368Y1213329D01*
X1606697Y1200000D01*
X1620026Y1200000D01*
X1606697Y1200000D01*
X1593368Y1186671D01*
X1593368Y1173342D01*
X1606697Y1160013D01*
X1633355Y1160013D01*
X1646684Y1173342D01*
X3446652Y1226658D02*
X3459981Y1239987D01*
X3486639Y1239987D01*
X3499968Y1226658D01*
X3499968Y1173342D01*
X3486639Y1160013D01*
X3459981Y1160013D01*
X3446652Y1173342D01*
X3419994Y1160013D02*
X3393336Y1160013D01*
X3406665Y1160013D01*
X3406665Y1239987D01*
X3419994Y1226658D01*
X3353348Y1226658D02*
X3340019Y1239987D01*
X3313361Y1239987D01*
X3300032Y1226658D01*
X3300032Y1213329D01*
X3313361Y1200000D01*
X3326690Y1200000D01*
X3313361Y1200000D01*
X3300032Y1186671D01*
X3300032Y1173342D01*
X3313361Y1160013D01*
X3340019Y1160013D01*
X3353348Y1173342D01*
X3933323Y1226658D02*
X3946651Y1239987D01*
X3973310Y1239987D01*
X3986639Y1226658D01*
X3986639Y1173342D01*
X3973310Y1160013D01*
X3946651Y1160013D01*
X3933323Y1173342D01*
X3906665Y1160013D02*
X3880006Y1160013D01*
X3893335Y1160013D01*
X3893335Y1239987D01*
X3906665Y1226658D01*
X3840019Y1160013D02*
X3813361Y1160013D01*
X3826690Y1160013D01*
X3826690Y1239987D01*
X3840019Y1226658D01*
X4863329Y1751658D02*
X4876658Y1764987D01*
X4903316Y1764987D01*
X4916645Y1751658D01*
X4916645Y1698342D01*
X4903316Y1685013D01*
X4876658Y1685013D01*
X4863329Y1698342D01*
X4796684Y1685013D02*
X4796684Y1764987D01*
X4836671Y1725000D01*
X4783355Y1725000D01*
X5210000Y1048342D02*
X5210000Y1101658D01*
X5223329Y1114987D01*
X5249987Y1114987D01*
X5263316Y1101658D01*
X5263316Y1048342D01*
X5249987Y1035013D01*
X5223329Y1035013D01*
X5236658Y1061671D02*
X5210000Y1035013D01*
X5223329Y1035013D02*
X5210000Y1048342D01*
X5183342Y1035013D02*
X5156684Y1035013D01*
X5170013Y1035013D01*
X5170013Y1114987D01*
X5183342Y1101658D01*
X2846652Y1226658D02*
X2859981Y1239987D01*
X2886639Y1239987D01*
X2899968Y1226658D01*
X2899968Y1173342D01*
X2886639Y1160013D01*
X2859981Y1160013D01*
X2846652Y1173342D01*
X2819994Y1160013D02*
X2793336Y1160013D01*
X2806664Y1160013D01*
X2806664Y1239987D01*
X2819994Y1226658D01*
X2753348Y1239987D02*
X2700032Y1239987D01*
X2700032Y1226658D01*
X2753348Y1173342D01*
X2753348Y1160013D01*
X2003316Y1226658D02*
X2016645Y1239987D01*
X2043303Y1239987D01*
X2056632Y1226658D01*
X2056632Y1173342D01*
X2043303Y1160013D01*
X2016645Y1160013D01*
X2003316Y1173342D01*
X1923342Y1160013D02*
X1976658Y1160013D01*
X1923342Y1213329D01*
X1923342Y1226658D01*
X1936671Y1239987D01*
X1963329Y1239987D01*
X1976658Y1226658D01*
X1843368Y1160013D02*
X1896684Y1160013D01*
X1843368Y1213329D01*
X1843368Y1226658D01*
X1856697Y1239987D01*
X1883355Y1239987D01*
X1896684Y1226658D01*
X3778316Y3982543D02*
X3778316Y4062517D01*
X3738329Y4062517D01*
X3725000Y4049188D01*
X3725000Y4022530D01*
X3738329Y4009201D01*
X3778316Y4009201D01*
X3751658Y4009201D02*
X3725000Y3982543D01*
X3698342Y3982543D02*
X3671684Y3982543D01*
X3685013Y3982543D01*
X3685013Y4062517D01*
X3698342Y4049188D01*
X4113329Y1676658D02*
X4126658Y1689987D01*
X4153316Y1689987D01*
X4166645Y1676658D01*
X4166645Y1623342D01*
X4153316Y1610013D01*
X4126658Y1610013D01*
X4113329Y1623342D01*
X4033355Y1689987D02*
X4060013Y1676658D01*
X4086671Y1650000D01*
X4086671Y1623342D01*
X4073342Y1610013D01*
X4046684Y1610013D01*
X4033355Y1623342D01*
X4033355Y1636671D01*
X4046684Y1650000D01*
X4086671Y1650000D01*
X2299968Y2060013D02*
X2299968Y2139987D01*
X2259980Y2139987D01*
X2246652Y2126658D01*
X2246652Y2100000D01*
X2259980Y2086671D01*
X2299968Y2086671D01*
X2273310Y2086671D02*
X2246652Y2060013D01*
X2219994Y2060013D02*
X2193335Y2060013D01*
X2206664Y2060013D01*
X2206664Y2139987D01*
X2219994Y2126658D01*
X2100032Y2139987D02*
X2126690Y2126658D01*
X2153348Y2100000D01*
X2153348Y2073342D01*
X2140019Y2060013D01*
X2113361Y2060013D01*
X2100032Y2073342D01*
X2100032Y2086671D01*
X2113361Y2100000D01*
X2153348Y2100000D01*
X1799968Y2060013D02*
X1799968Y2139987D01*
X1759980Y2139987D01*
X1746652Y2126658D01*
X1746652Y2100000D01*
X1759980Y2086671D01*
X1799968Y2086671D01*
X1773310Y2086671D02*
X1746652Y2060013D01*
X1719994Y2060013D02*
X1693335Y2060013D01*
X1706664Y2060013D01*
X1706664Y2139987D01*
X1719994Y2126658D01*
X1653348Y2126658D02*
X1640019Y2139987D01*
X1613361Y2139987D01*
X1600032Y2126658D01*
X1600032Y2113329D01*
X1613361Y2100000D01*
X1626690Y2100000D01*
X1613361Y2100000D01*
X1600032Y2086671D01*
X1600032Y2073342D01*
X1613361Y2060013D01*
X1640019Y2060013D01*
X1653348Y2073342D01*
X3149968Y2060013D02*
X3149968Y2139987D01*
X3109981Y2139987D01*
X3096652Y2126658D01*
X3096652Y2100000D01*
X3109981Y2086671D01*
X3149968Y2086671D01*
X3123310Y2086671D02*
X3096652Y2060013D01*
X3069994Y2060013D02*
X3043336Y2060013D01*
X3056664Y2060013D01*
X3056664Y2139987D01*
X3069994Y2126658D01*
X2950032Y2060013D02*
X3003348Y2060013D01*
X2950032Y2113329D01*
X2950032Y2126658D01*
X2963361Y2139987D01*
X2990019Y2139987D01*
X3003348Y2126658D01*
X2666645Y2060013D02*
X2666645Y2139987D01*
X2626658Y2139987D01*
X2613329Y2126658D01*
X2613329Y2100000D01*
X2626658Y2086671D01*
X2666645Y2086671D01*
X2639987Y2086671D02*
X2613329Y2060013D01*
X2586671Y2073342D02*
X2573342Y2060013D01*
X2546684Y2060013D01*
X2533355Y2073342D01*
X2533355Y2126658D01*
X2546684Y2139987D01*
X2573342Y2139987D01*
X2586671Y2126658D01*
X2586671Y2113329D01*
X2573342Y2100000D01*
X2533355Y2100000D01*
X1516645Y1560013D02*
X1516645Y1639987D01*
X1476658Y1639987D01*
X1463329Y1626658D01*
X1463329Y1600000D01*
X1476658Y1586671D01*
X1516645Y1586671D01*
X1489987Y1586671D02*
X1463329Y1560013D01*
X1436671Y1626658D02*
X1423342Y1639987D01*
X1396684Y1639987D01*
X1383355Y1626658D01*
X1383355Y1613329D01*
X1396684Y1600000D01*
X1383355Y1586671D01*
X1383355Y1573342D01*
X1396684Y1560013D01*
X1423342Y1560013D01*
X1436671Y1573342D01*
X1436671Y1586671D01*
X1423342Y1600000D01*
X1436671Y1613329D01*
X1436671Y1626658D01*
X1423342Y1600000D02*
X1396684Y1600000D01*
X4241645Y1289987D02*
X4241645Y1223342D01*
X4228316Y1210013D01*
X4201658Y1210013D01*
X4188329Y1223342D01*
X4188329Y1289987D01*
X4161671Y1276658D02*
X4148342Y1289987D01*
X4121684Y1289987D01*
X4108355Y1276658D01*
X4108355Y1263329D01*
X4121684Y1250000D01*
X4135013Y1250000D01*
X4121684Y1250000D01*
X4108355Y1236671D01*
X4108355Y1223342D01*
X4121684Y1210013D01*
X4148342Y1210013D01*
X4161671Y1223342D01*
X2366645Y1610013D02*
X2366645Y1689987D01*
X2326658Y1689987D01*
X2313329Y1676658D01*
X2313329Y1650000D01*
X2326658Y1636671D01*
X2366645Y1636671D01*
X2339987Y1636671D02*
X2313329Y1610013D01*
X2286671Y1689987D02*
X2233355Y1689987D01*
X2233355Y1676658D01*
X2286671Y1623342D01*
X2286671Y1610013D01*
X3916645Y2060013D02*
X3916645Y2139987D01*
X3876658Y2139987D01*
X3863329Y2126658D01*
X3863329Y2100000D01*
X3876658Y2086671D01*
X3916645Y2086671D01*
X3889987Y2086671D02*
X3863329Y2060013D01*
X3783355Y2139987D02*
X3810013Y2126658D01*
X3836671Y2100000D01*
X3836671Y2073342D01*
X3823342Y2060013D01*
X3796684Y2060013D01*
X3783355Y2073342D01*
X3783355Y2086671D01*
X3796684Y2100000D01*
X3836671Y2100000D01*
X3516645Y2060013D02*
X3516645Y2139987D01*
X3476658Y2139987D01*
X3463329Y2126658D01*
X3463329Y2100000D01*
X3476658Y2086671D01*
X3516645Y2086671D01*
X3489987Y2086671D02*
X3463329Y2060013D01*
X3436671Y2126658D02*
X3423342Y2139987D01*
X3396684Y2139987D01*
X3383355Y2126658D01*
X3383355Y2113329D01*
X3396684Y2100000D01*
X3410013Y2100000D01*
X3396684Y2100000D01*
X3383355Y2086671D01*
X3383355Y2073342D01*
X3396684Y2060013D01*
X3423342Y2060013D01*
X3436671Y2073342D01*
X3216645Y1610013D02*
X3216645Y1689987D01*
X3176658Y1689987D01*
X3163329Y1676658D01*
X3163329Y1650000D01*
X3176658Y1636671D01*
X3216645Y1636671D01*
X3189987Y1636671D02*
X3163329Y1610013D01*
X3083355Y1610013D02*
X3136671Y1610013D01*
X3083355Y1663329D01*
X3083355Y1676658D01*
X3096684Y1689987D01*
X3123342Y1689987D01*
X3136671Y1676658D01*
X2239987Y1226658D02*
X2253316Y1239987D01*
X2279974Y1239987D01*
X2293303Y1226658D01*
X2293303Y1173342D01*
X2279974Y1160013D01*
X2253316Y1160013D01*
X2239987Y1173342D01*
X2160013Y1160013D02*
X2213329Y1160013D01*
X2160013Y1213329D01*
X2160013Y1226658D01*
X2173342Y1239987D01*
X2200000Y1239987D01*
X2213329Y1226658D01*
X2133355Y1160013D02*
X2106697Y1160013D01*
X2120025Y1160013D01*
X2120025Y1239987D01*
X2133355Y1226658D01*
X2596652Y1226658D02*
X2609981Y1239987D01*
X2636639Y1239987D01*
X2649968Y1226658D01*
X2649968Y1173342D01*
X2636639Y1160013D01*
X2609981Y1160013D01*
X2596652Y1173342D01*
X2569994Y1160013D02*
X2543336Y1160013D01*
X2556664Y1160013D01*
X2556664Y1239987D01*
X2569994Y1226658D01*
X2503348Y1226658D02*
X2490019Y1239987D01*
X2463361Y1239987D01*
X2450032Y1226658D01*
X2450032Y1213329D01*
X2463361Y1200000D01*
X2450032Y1186671D01*
X2450032Y1173342D01*
X2463361Y1160013D01*
X2490019Y1160013D01*
X2503348Y1173342D01*
X2503348Y1186671D01*
X2490019Y1200000D01*
X2503348Y1213329D01*
X2503348Y1226658D01*
X2490019Y1200000D02*
X2463361Y1200000D01*
X3096652Y1226658D02*
X3109981Y1239987D01*
X3136639Y1239987D01*
X3149968Y1226658D01*
X3149968Y1173342D01*
X3136639Y1160013D01*
X3109981Y1160013D01*
X3096652Y1173342D01*
X3069994Y1160013D02*
X3043336Y1160013D01*
X3056664Y1160013D01*
X3056664Y1239987D01*
X3069994Y1226658D01*
X2950032Y1239987D02*
X2976690Y1226658D01*
X3003348Y1200000D01*
X3003348Y1173342D01*
X2990019Y1160013D01*
X2963361Y1160013D01*
X2950032Y1173342D01*
X2950032Y1186671D01*
X2963361Y1200000D01*
X3003348Y1200000D01*
X3696652Y1226658D02*
X3709981Y1239987D01*
X3736639Y1239987D01*
X3749968Y1226658D01*
X3749968Y1173342D01*
X3736639Y1160013D01*
X3709981Y1160013D01*
X3696652Y1173342D01*
X3669994Y1160013D02*
X3643336Y1160013D01*
X3656665Y1160013D01*
X3656665Y1239987D01*
X3669994Y1226658D01*
X3550032Y1160013D02*
X3603348Y1160013D01*
X3550032Y1213329D01*
X3550032Y1226658D01*
X3563361Y1239987D01*
X3590019Y1239987D01*
X3603348Y1226658D01*
X5213329Y1926658D02*
X5226658Y1939987D01*
X5253316Y1939987D01*
X5266645Y1926658D01*
X5266645Y1873342D01*
X5253316Y1860013D01*
X5226658Y1860013D01*
X5213329Y1873342D01*
X5133355Y1939987D02*
X5186671Y1939987D01*
X5186671Y1900000D01*
X5160013Y1913329D01*
X5146684Y1913329D01*
X5133355Y1900000D01*
X5133355Y1873342D01*
X5146684Y1860013D01*
X5173342Y1860013D01*
X5186671Y1873342D01*
%TF.MD5,fc201b72624f0197209fe26017b60598*%
M02*
