%TF.GenerationSoftware,Altium Limited,Altium Designer,22.9.1 (49)*%
G04 Layer_Color=128*
%FSLAX45Y45*%
%MOMM*%
%TF.SameCoordinates,CD82FF21-FF23-4195-95DD-DD0BBBA1307D*%
%TF.FilePolarity,Positive*%
%TF.FileFunction,Paste,Bot*%
%TF.Part,Single*%
G01*
G75*
%TA.AperFunction,SMDPad,CuDef*%
%ADD15R,0.86360X0.88900*%
%ADD23R,0.81280X0.76200*%
%ADD24R,1.34620X1.06680*%
%ADD27R,0.76200X0.81280*%
%ADD48R,1.00000X0.70000*%
%ADD49R,4.40000X4.40000*%
%ADD50R,1.05000X0.55000*%
D15*
X4702470Y1600000D02*
D03*
X4547530Y1600000D02*
D03*
X4402470Y1600000D02*
D03*
X4247530Y1600000D02*
D03*
X5277470Y1700000D02*
D03*
X5122530Y1700000D02*
D03*
D23*
X2625000Y1964970D02*
D03*
X2625000Y1810030D02*
D03*
X2975000Y1964970D02*
D03*
X2975000Y1810030D02*
D03*
X3820000Y1964970D02*
D03*
X3820000Y1810030D02*
D03*
X3475000Y1964840D02*
D03*
X3475000Y1809900D02*
D03*
X3725000Y4145060D02*
D03*
X3725000Y4300000D02*
D03*
X2125000Y1809900D02*
D03*
X2125000Y1964840D02*
D03*
X1775000Y1809900D02*
D03*
X1775000Y1964840D02*
D03*
D24*
X2800000Y1324740D02*
D03*
X2800000Y1500000D02*
D03*
X2975000Y1324740D02*
D03*
X2975000Y1500000D02*
D03*
X2625000Y1324740D02*
D03*
X2625000Y1500000D02*
D03*
X3475000Y1324740D02*
D03*
X3475000Y1500000D02*
D03*
X3650000Y1324740D02*
D03*
X3650000Y1500000D02*
D03*
X3825000Y1324740D02*
D03*
X3825000Y1500000D02*
D03*
X1775000Y1500000D02*
D03*
X1775000Y1324740D02*
D03*
X1950000Y1500000D02*
D03*
X1950000Y1324740D02*
D03*
X2125000Y1500000D02*
D03*
X2125000Y1324740D02*
D03*
D27*
X2602470Y1650000D02*
D03*
X2447530Y1650000D02*
D03*
X3477470Y1637370D02*
D03*
X3322530Y1637370D02*
D03*
X1597530Y1650000D02*
D03*
X1752470Y1650000D02*
D03*
D48*
X4595000Y1420000D02*
D03*
X4595000Y1325000D02*
D03*
X4595000Y1230000D02*
D03*
X4355000Y1230000D02*
D03*
X4355000Y1420000D02*
D03*
D49*
X5200000Y1350000D02*
D03*
D50*
X4850000Y1540500D02*
D03*
X4850000Y1413500D02*
D03*
X4850000Y1286500D02*
D03*
X4850000Y1159500D02*
D03*
%TF.MD5,41fda30ef7fbae3eb90b10ec80f75383*%
M02*
